g TeleporterProngCollisionMesh
v 6.830917 -1.441495E-06 2.587337
v 6.285847 0.5045711 1.938061
v 6.785913 -1.68658E-06 1.890967
v 6.377646 0.4541137 2.606715
v 6.808077 -1.441495E-06 3.32522
v 5.78578 -1.19641E-06 1.985156
v 6.404436 0.4036567 3.322665
v 6.709578 -1.441495E-06 4.083315
v 5.924376 -1.19641E-06 2.626093
v 6.285847 -0.5045738 1.938061
v 6.357587 0.3531993 4.062869
v 6.527052 -1.441495E-06 4.839318
v 6.000794 -1.19641E-06 3.320109
v 6.377646 -0.4541167 2.606715
v 6.785913 -1.68658E-06 1.890967
v 6.830917 -1.441495E-06 2.587337
v 6.404436 -0.4036593 3.322665
v 6.808077 -1.441495E-06 3.32522
v 6.228473 0.3027422 4.804286
v 6.251916 -1.441495E-06 5.570208
v 6.005596 -1.19641E-06 4.042424
v 6.357587 -0.3532021 4.062869
v 6.709578 -1.441495E-06 4.083315
v 6.008467 0.252285 5.523875
v 5.875677 -1.19641E-06 6.252204
v 5.929895 -1.19641E-06 4.769254
v 6.228473 -0.3027447 4.804286
v 6.527052 -1.441495E-06 4.839318
v 5.688942 0.2018278 6.198595
v 5.390533 -1.19641E-06 6.860544
v 5.765018 -1.19641E-06 5.477542
v 6.008467 -0.2522876 5.523875
v 6.251916 -1.441495E-06 5.570208
v 5.261272 0.1513707 6.805403
v 4.790717 -9.513245E-07 7.369374
v 5.502209 -1.19641E-06 6.144986
v 5.688942 -0.2018303 6.198595
v 5.875677 -1.19641E-06 6.252204
v 4.716827 0.1009136 7.321261
v 4.07439 -9.513245E-07 7.752779
v 5.13201 -1.19641E-06 6.750263
v 5.261272 -0.1513729 6.805403
v 5.390533 -1.19641E-06 6.860544
v 4.046983 0.05045643 7.723126
v 3.243111 -7.062395E-07 7.987954
v 4.642939 -9.513245E-07 7.273148
v 4.716827 -0.1009155 7.321261
v 4.790717 -9.513245E-07 7.369374
v 4.019575 -9.513245E-07 7.69347
v 4.046983 -0.05045809 7.723126
v 4.07439 -9.513245E-07 7.752779
v -6.830917 -1.441495E-06 2.587337
v -6.785913 -1.68658E-06 1.890967
v -6.285847 0.5045711 1.938061
v -6.377646 0.4541137 2.606715
v -6.808077 -1.441495E-06 3.32522
v -5.78578 -1.19641E-06 1.985156
v -6.404436 0.4036567 3.322665
v -6.709578 -1.441495E-06 4.083315
v -5.924376 -1.19641E-06 2.626093
v -6.285847 -0.5045738 1.938061
v -6.357587 0.3531993 4.062869
v -6.527052 -1.441495E-06 4.839318
v -6.000794 -1.19641E-06 3.320109
v -6.377646 -0.4541167 2.606715
v -6.785913 -1.68658E-06 1.890967
v -6.830917 -1.441495E-06 2.587337
v -6.404436 -0.4036593 3.322665
v -6.808077 -1.441495E-06 3.32522
v -6.228473 0.3027422 4.804286
v -6.251916 -1.441495E-06 5.570208
v -6.005596 -1.19641E-06 4.042424
v -6.357587 -0.3532021 4.062869
v -6.709578 -1.441495E-06 4.083315
v -6.008467 0.252285 5.523875
v -5.875677 -1.19641E-06 6.252204
v -5.929895 -1.19641E-06 4.769254
v -6.228473 -0.3027447 4.804286
v -6.527052 -1.441495E-06 4.839318
v -5.688942 0.2018278 6.198595
v -5.390533 -1.19641E-06 6.860544
v -5.765018 -1.19641E-06 5.477542
v -6.008467 -0.2522876 5.523875
v -6.251916 -1.441495E-06 5.570208
v -5.261272 0.1513707 6.805403
v -4.790717 -9.513245E-07 7.369374
v -5.502209 -1.19641E-06 6.144986
v -5.688942 -0.2018303 6.198595
v -5.875677 -1.19641E-06 6.252204
v -4.716827 0.1009136 7.321261
v -4.07439 -9.513245E-07 7.752779
v -5.13201 -1.19641E-06 6.750263
v -5.261272 -0.1513729 6.805403
v -5.390533 -1.19641E-06 6.860544
v -4.046983 0.05045643 7.723126
v -3.243111 -7.062395E-07 7.987954
v -4.642939 -9.513245E-07 7.273148
v -4.716827 -0.1009155 7.321261
v -4.790717 -9.513245E-07 7.369374
v -4.019575 -9.513245E-07 7.69347
v -4.046983 -0.05045809 7.723126
v -4.07439 -9.513245E-07 7.752779
v 5.983255 0.709722 1.075331
v 4.995352 -1.12313E-06 0.8109174
v 5.816453 0.7405795 0.8109174
v 5.300992 -1.143785E-06 1.11743
v 5.816453 -0.7405825 0.8109174
v 6.750738 -1.602227E-06 1.033232
v 6.807996 -1.47651E-06 0.8109174
v 5.983255 -0.709725 1.075331
v 6.812789 -1.74596E-06 1.255546
v 6.150057 0.6788645 1.339744
v 5.487324 -1.146425E-06 1.423943
v 6.150057 -0.6788676 1.339744
v 6.314789 0.6227726 1.883547
v 6.931083 -1.74596E-06 1.833072
v 6.314788 -0.6227753 1.883547
v 5.698493 -1.146425E-06 1.934022
v 6.285847 -0.5045738 1.938061
v 5.78578 -1.19641E-06 1.985156
v 6.785913 -1.68658E-06 1.890967
v 6.285847 0.5045711 1.938061
v -5.983255 0.709722 1.075331
v -5.816453 0.7405795 0.8109174
v -4.995352 -1.12313E-06 0.8109174
v -5.300992 -1.143785E-06 1.11743
v -5.816453 -0.7405825 0.8109174
v -6.750738 -1.602227E-06 1.033232
v -6.807996 -1.47651E-06 0.8109174
v -5.983255 -0.709725 1.075331
v -6.812789 -1.74596E-06 1.255546
v -6.150057 0.6788645 1.339744
v -5.487324 -1.146425E-06 1.423943
v -6.150057 -0.6788676 1.339744
v -6.314789 0.6227726 1.883547
v -6.931083 -1.74596E-06 1.833072
v -6.314788 -0.6227753 1.883547
v -5.698493 -1.146425E-06 1.934022
v -6.285847 -0.5045738 1.938061
v -5.78578 -1.19641E-06 1.985156
v -6.785913 -1.68658E-06 1.890967
v -6.285847 0.5045711 1.938061
vt 0.975072 0.8237653
vt 0.9633976 0.8532217
vt 0.9770307 0.8503143
vt 0.9625686 0.8269101
vt 0.9724843 0.7954902
vt 0.9496693 0.8542928
vt 0.9611994 0.7982162
vt 0.9693342 0.7663057
vt 0.9495084 0.8280032
vt 0.9359239 0.8525412
vt 0.959499 0.7682986
vt 0.9660217 0.7371194
vt 0.94933 0.7988812
vt 0.9364306 0.8262625
vt 0.9222509 0.8489574
vt 0.9238848 0.8224974
vt 0.9374487 0.7976277
vt 0.9261271 0.7943419
vt 0.9576876 0.7382245
vt 0.962722 0.708217
vt 0.9491434 0.7683929
vt 0.9387832 0.7677855
vt 0.9289207 0.7653046
vt 0.9558802 0.7085336
vt 0.9594929 0.6796656
vt 0.9489548 0.7376208
vt 0.9402266 0.737792
vt 0.9318765 0.7362737
vt 0.9541151 0.6794178
vt 0.9563608 0.6512142
vt 0.9487697 0.7073954
vt 0.941671 0.7081816
vt 0.9348233 0.707526
vt 0.9524105 0.6506909
vt 0.9533612 0.6222213
vt 0.9485896 0.6779926
vt 0.94308 0.6791444
vt 0.9377037 0.679126
vt 0.950792 0.6217453
vt 0.9505305 0.5917423
vt 0.9484138 0.6492931
vt 0.944433 0.6504933
vt 0.9404882 0.650821
vt 0.9492832 0.5915424
vt 0.9478601 0.5588564
vt 0.9482389 0.6207188
vt 0.9456977 0.6216192
vt 0.9431334 0.621968
vt 0.9480575 0.5910932
vt 0.9468369 0.5914819
vt 0.9455919 0.59162
vt 0.9409167 0.3385806
vt 0.9396169 0.3651146
vt 0.9533307 0.3680075
vt 0.9535058 0.3417115
vt 0.9428029 0.310321
vt 0.9670939 0.369065
vt 0.9541623 0.3130346
vt 0.9452293 0.281152
vt 0.9666014 0.3427919
vt 0.9808041 0.3673016
vt 0.95512 0.2831344
vt 0.9478179 0.2519812
vt 0.9660557 0.3136881
vt 0.9796439 0.34104
vt 0.9943964 0.3637072
vt 0.9921035 0.3372656
vt 0.977913 0.3124243
vt 0.9891598 0.3091299
vt 0.9561845 0.2530777
vt 0.950401 0.2230939
vt 0.9654843 0.283219
vt 0.9758357 0.2826023
vt 0.9856425 0.2801137
vt 0.957255 0.2234039
vt 0.9529223 0.1945575
vt 0.9649079 0.2524662
vt 0.9736455 0.2526291
vt 0.981963 0.2511038
vt 0.9582971 0.1943048
vt 0.9553488 0.1661212
vt 0.9643413 0.2222598
vt 0.971464 0.2230388
vt 0.9782996 0.2223772
vt 0.9592883 0.1655945
vt 0.9576294 0.1371438
vt 0.9637906 0.1928754
vt 0.9693323 0.1940212
vt 0.9747114 0.1939977
vt 0.9601883 0.1366659
vt 0.959704 0.1066816
vt 0.9632527 0.1641938
vt 0.9672659 0.1653895
vt 0.9712213 0.1657134
vt 0.960947 0.1064806
vt 0.9615582 0.07381394
vt 0.9627174 0.1356376
vt 0.9652826 0.136535
vt 0.9678569 0.1368811
vt 0.9621621 0.1060305
vt 0.9633932 0.1064177
vt 0.9646426 0.1065547
vt 0.1424579 0.4620804
vt 0.1591036 0.4828548
vt 0.1449606 0.4521886
vt 0.1517255 0.4813588
vt 0.1421759 0.5072125
vt 0.1311841 0.4771972
vt 0.1249311 0.4759308
vt 0.1407157 0.4965227
vt 0.1352123 0.4780131
vt 0.1411526 0.4690535
vt 0.1463778 0.4802748
vt 0.1401356 0.48917
vt 0.1405192 0.4763778
vt 0.1393037 0.4788426
vt 0.1402482 0.4817445
vt 0.1420327 0.4793949
vt 0.1403609 0.4811334
vt 0.1417013 0.4793276
vt 0.1396343 0.4789097
vt 0.1405685 0.4770218
vt 0.3540382 0.504869
vt 0.3525742 0.4941751
vt 0.3356532 0.518559
vt 0.3430316 0.5200472
vt 0.3498053 0.549202
vt 0.3635739 0.5241943
vt 0.369827 0.525457
vt 0.352304 0.539313
vt 0.3595455 0.5233808
vt 0.3546204 0.5122239
vt 0.3483796 0.5211263
vt 0.3536069 0.5323412
vt 0.3545092 0.5196537
vt 0.3554539 0.5225555
vt 0.3542385 0.5250206
vt 0.3527248 0.5220038
vt 0.3541892 0.5243767
vt 0.3530564 0.5220708
vt 0.3551233 0.5224887
vt 0.3543966 0.520265
vn 0.9998686 0 -0.01620567
vn -0.05786443 0.7101211 0.7016978
vn 0.7042322 0 0.7099698
vn 0.02700906 0.9972296 0.06930801
vn 0.9968541 0 0.07925881
vn -0.7156759 0 0.6984326
vn 0.02206546 0.9973405 0.06946194
vn 0.9836887 0 0.179879
vn -0.9867666 0 0.1621468
vn -0.05786443 -0.7101211 0.7016978
vn 0.01843352 0.997272 0.07147568
vn 0.957 0 0.2900878
vn -0.9982817 0 0.05859679
vn 0.02700906 -0.9972296 0.06930801
vn 0.7042322 0 0.7099698
vn 0.9998686 0 -0.01620567
vn 0.02206546 -0.9973405 0.06946194
vn 0.9968541 0 0.07925881
vn 0.01507624 0.9970154 0.0757169
vn 0.9109321 0 0.4125563
vn -0.9987846 0 -0.04928766
vn 0.01843352 -0.997272 0.07147568
vn 0.9836887 0 0.179879
vn 0.01068157 0.9965294 0.08255327
vn 0.8373549 0 0.5466596
vn -0.9858012 0 -0.1679167
vn 0.01507624 -0.9970154 0.0757169
vn 0.957 0 0.2900878
vn 0.003357129 0.9957857 0.09164963
vn 0.7273626 0 0.6862533
vn -0.9532639 0 -0.302139
vn 0.01068157 -0.9965294 0.08255327
vn 0.9109321 0 0.4125563
vn -0.009064067 0.9948806 0.1006508
vn 0.5757194 0 0.8176473
vn -0.8912679 0 -0.4534772
vn 0.003357129 -0.9957857 0.09164963
vn 0.8373549 0 0.5466596
vn -0.0268869 0.9942355 0.1037938
vn 0.3875303 0 0.9218569
vn -0.7879665 0 -0.615718
vn -0.009064067 -0.9948806 0.1006508
vn 0.7273626 0 0.6862533
vn -0.04406917 0.9944863 0.09515768
vn -0.9496796 -9.155891E-05 0.3132231
vn -0.6369367 0 -0.7709162
vn -0.0268869 -0.9942355 0.1037938
vn 0.5757194 0 0.8176473
vn -0.4478117 0 -0.8941279
vn -0.04406917 -0.9944863 0.09515768
vn 0.3875303 0 0.9218569
vn -0.9998686 0 -0.01620567
vn -0.7042322 0 0.7099698
vn 0.05786443 0.7101211 0.7016978
vn -0.02700906 0.9972296 0.06930801
vn -0.9968541 0 0.07925881
vn 0.7156759 0 0.6984326
vn -0.02206546 0.9973405 0.06946194
vn -0.9836887 0 0.179879
vn 0.9867666 0 0.1621468
vn 0.05786443 -0.7101211 0.7016978
vn -0.01843352 0.997272 0.07147568
vn -0.957 0 0.2900878
vn 0.9982817 0 0.05859679
vn -0.02700906 -0.9972296 0.06930801
vn -0.7042322 0 0.7099698
vn -0.9998686 0 -0.01620567
vn -0.02206546 -0.9973405 0.06946194
vn -0.9968541 0 0.07925881
vn -0.01507624 0.9970154 0.0757169
vn -0.9109321 0 0.4125563
vn 0.9987846 0 -0.04928766
vn -0.01843352 -0.997272 0.07147568
vn -0.9836887 0 0.179879
vn -0.01068157 0.9965294 0.08255327
vn -0.8373549 0 0.5466596
vn 0.9858012 0 -0.1679167
vn -0.01507624 -0.9970154 0.0757169
vn -0.957 0 0.2900878
vn -0.003357129 0.9957857 0.09164963
vn -0.7273626 0 0.6862533
vn 0.9532639 0 -0.302139
vn -0.01068157 -0.9965294 0.08255327
vn -0.9109321 0 0.4125563
vn 0.009064067 0.9948806 0.1006508
vn -0.5757194 0 0.8176473
vn 0.8912679 0 -0.4534772
vn -0.003357129 -0.9957857 0.09164963
vn -0.8373549 0 0.5466596
vn 0.0268869 0.9942355 0.1037938
vn -0.3875303 0 0.9218569
vn 0.7879665 0 -0.615718
vn 0.009064067 -0.9948806 0.1006508
vn -0.7273626 0 0.6862533
vn 0.04406917 0.9944863 0.09515768
vn 0.9496796 -9.155891E-05 0.3132231
vn 0.6369367 0 -0.7709162
vn 0.0268869 -0.9942355 0.1037938
vn -0.5757194 0 0.8176473
vn 0.4478117 0 -0.8941279
vn 0.04406917 -0.9944863 0.09515768
vn -0.3875303 0 0.9218569
vn 0.02105796 0.9758382 0.2174769
vn -0.7488858 0 0.6626989
vn -0.1981016 0.8961725 0.3970272
vn -0.7802282 0 0.6254949
vn -0.1981016 -0.8961725 0.3970272
vn 0.9640647 0 -0.2656679
vn 0.9892435 0 -0.1462777
vn 0.02105796 -0.9758382 0.2174769
vn 0.9592804 0 -0.2824555
vn 0.07269681 0.9948658 0.07040786
vn -0.8732705 0 0.4872357
vn 0.07269681 -0.9948658 0.07040786
vn 0.116858 0.8678743 0.4828441
vn 0.9321718 0 0.3620162
vn 0.116858 -0.8678743 0.4828441
vn -0.7930028 0 0.6092181
vn -0.05786443 -0.7101211 0.7016978
vn -0.7156759 0 0.6984326
vn 0.7042322 0 0.7099698
vn -0.05786443 0.7101211 0.7016978
vn -0.02105796 0.9758382 0.2174769
vn 0.1981016 0.8961725 0.3970272
vn 0.7488858 0 0.6626989
vn 0.7802282 0 0.6254949
vn 0.1981016 -0.8961725 0.3970272
vn -0.9640647 0 -0.2656679
vn -0.9892435 0 -0.1462777
vn -0.02105796 -0.9758382 0.2174769
vn -0.9592804 0 -0.2824555
vn -0.07269681 0.9948658 0.07040786
vn 0.8732705 0 0.4872357
vn -0.07269681 -0.9948658 0.07040786
vn -0.116858 0.8678743 0.4828441
vn -0.9321718 0 0.3620162
vn -0.116858 -0.8678743 0.4828441
vn 0.7930028 0 0.6092181
vn 0.05786443 -0.7101211 0.7016978
vn 0.7156759 0 0.6984326
vn -0.7042322 0 0.7099698
vn 0.05786443 0.7101211 0.7016978
g TeleporterProngCollisionMesh_0
f 3/3/3 2/2/2 1/1/1
f 2/2/2 4/4/4 1/1/1
f 1/1/1 4/4/4 5/5/5
f 2/2/2 6/6/6 4/4/4
f 4/4/4 7/7/7 5/5/5
f 5/5/5 7/7/7 8/8/8
f 6/6/6 9/9/9 4/4/4
f 4/4/4 9/9/9 7/7/7
f 6/6/6 10/10/10 9/9/9
f 7/7/7 11/11/11 8/8/8
f 8/8/8 11/11/11 12/12/12
f 9/9/9 13/13/13 7/7/7
f 7/7/7 13/13/13 11/11/11
f 10/10/10 14/14/14 9/9/9
f 9/9/9 14/14/14 13/13/13
f 10/10/10 15/15/15 14/14/14
f 15/15/15 16/16/16 14/14/14
f 14/14/14 16/16/16 17/17/17
f 14/14/14 17/17/17 13/13/13
f 16/16/16 18/18/18 17/17/17
f 11/11/11 19/19/19 12/12/12
f 12/12/12 19/19/19 20/20/20
f 13/13/13 21/21/21 11/11/11
f 13/13/13 17/17/17 21/21/21
f 11/11/11 21/21/21 19/19/19
f 17/17/17 18/18/18 22/22/22
f 17/17/17 22/22/22 21/21/21
f 18/18/18 23/23/23 22/22/22
f 19/19/19 24/24/24 20/20/20
f 20/20/20 24/24/24 25/25/25
f 21/21/21 26/26/26 19/19/19
f 21/21/21 22/22/22 26/26/26
f 19/19/19 26/26/26 24/24/24
f 22/22/22 23/23/23 27/27/27
f 22/22/22 27/27/27 26/26/26
f 23/23/23 28/28/28 27/27/27
f 24/24/24 29/29/29 25/25/25
f 25/25/25 29/29/29 30/30/30
f 26/26/26 31/31/31 24/24/24
f 26/26/26 27/27/27 31/31/31
f 24/24/24 31/31/31 29/29/29
f 27/27/27 28/28/28 32/32/32
f 27/27/27 32/32/32 31/31/31
f 28/28/28 33/33/33 32/32/32
f 29/29/29 34/34/34 30/30/30
f 30/30/30 34/34/34 35/35/35
f 31/31/31 36/36/36 29/29/29
f 31/31/31 32/32/32 36/36/36
f 29/29/29 36/36/36 34/34/34
f 32/32/32 33/33/33 37/37/37
f 32/32/32 37/37/37 36/36/36
f 33/33/33 38/38/38 37/37/37
f 34/34/34 39/39/39 35/35/35
f 35/35/35 39/39/39 40/40/40
f 36/36/36 41/41/41 34/34/34
f 36/36/36 37/37/37 41/41/41
f 34/34/34 41/41/41 39/39/39
f 37/37/37 38/38/38 42/42/42
f 37/37/37 42/42/42 41/41/41
f 38/38/38 43/43/43 42/42/42
f 39/39/39 44/44/44 40/40/40
f 40/40/40 44/44/44 45/45/45
f 41/41/41 46/46/46 39/39/39
f 41/41/41 42/42/42 46/46/46
f 39/39/39 46/46/46 44/44/44
f 42/42/42 43/43/43 47/47/47
f 42/42/42 47/47/47 46/46/46
f 43/43/43 48/48/48 47/47/47
f 46/46/46 49/49/49 44/44/44
f 44/44/44 49/49/49 45/45/45
f 46/46/46 47/47/47 49/49/49
f 47/47/47 48/48/48 50/50/50
f 47/47/47 50/50/50 49/49/49
f 49/49/49 50/50/50 45/45/45
f 48/48/48 51/51/51 50/50/50
f 50/50/50 51/51/51 45/45/45
f 54/54/54 53/53/53 52/52/52
f 55/55/55 54/54/54 52/52/52
f 55/55/55 52/52/52 56/56/56
f 57/57/57 54/54/54 55/55/55
f 58/58/58 55/55/55 56/56/56
f 58/58/58 56/56/56 59/59/59
f 60/60/60 57/57/57 55/55/55
f 60/60/60 55/55/55 58/58/58
f 61/61/61 57/57/57 60/60/60
f 62/62/62 58/58/58 59/59/59
f 62/62/62 59/59/59 63/63/63
f 64/64/64 60/60/60 58/58/58
f 64/64/64 58/58/58 62/62/62
f 65/65/65 61/61/61 60/60/60
f 65/65/65 60/60/60 64/64/64
f 66/66/66 61/61/61 65/65/65
f 67/67/67 66/66/66 65/65/65
f 67/67/67 65/65/65 68/68/68
f 68/68/68 65/65/65 64/64/64
f 69/69/69 67/67/67 68/68/68
f 70/70/70 62/62/62 63/63/63
f 70/70/70 63/63/63 71/71/71
f 72/72/72 64/64/64 62/62/62
f 68/68/68 64/64/64 72/72/72
f 72/72/72 62/62/62 70/70/70
f 69/69/69 68/68/68 73/73/73
f 73/73/73 68/68/68 72/72/72
f 74/74/74 69/69/69 73/73/73
f 75/75/75 70/70/70 71/71/71
f 75/75/75 71/71/71 76/76/76
f 77/77/77 72/72/72 70/70/70
f 73/73/73 72/72/72 77/77/77
f 77/77/77 70/70/70 75/75/75
f 74/74/74 73/73/73 78/78/78
f 78/78/78 73/73/73 77/77/77
f 79/79/79 74/74/74 78/78/78
f 80/80/80 75/75/75 76/76/76
f 80/80/80 76/76/76 81/81/81
f 82/82/82 77/77/77 75/75/75
f 78/78/78 77/77/77 82/82/82
f 82/82/82 75/75/75 80/80/80
f 79/79/79 78/78/78 83/83/83
f 83/83/83 78/78/78 82/82/82
f 84/84/84 79/79/79 83/83/83
f 85/85/85 80/80/80 81/81/81
f 85/85/85 81/81/81 86/86/86
f 87/87/87 82/82/82 80/80/80
f 83/83/83 82/82/82 87/87/87
f 87/87/87 80/80/80 85/85/85
f 84/84/84 83/83/83 88/88/88
f 88/88/88 83/83/83 87/87/87
f 89/89/89 84/84/84 88/88/88
f 90/90/90 85/85/85 86/86/86
f 90/90/90 86/86/86 91/91/91
f 92/92/92 87/87/87 85/85/85
f 88/88/88 87/87/87 92/92/92
f 92/92/92 85/85/85 90/90/90
f 89/89/89 88/88/88 93/93/93
f 93/93/93 88/88/88 92/92/92
f 94/94/94 89/89/89 93/93/93
f 95/95/95 90/90/90 91/91/91
f 95/95/95 91/91/91 96/96/96
f 97/97/97 92/92/92 90/90/90
f 93/93/93 92/92/92 97/97/97
f 97/97/97 90/90/90 95/95/95
f 94/94/94 93/93/93 98/98/98
f 98/98/98 93/93/93 97/97/97
f 99/99/99 94/94/94 98/98/98
f 100/100/100 97/97/97 95/95/95
f 100/100/100 95/95/95 96/96/96
f 98/98/98 97/97/97 100/100/100
f 99/99/99 98/98/98 101/101/101
f 101/101/101 98/98/98 100/100/100
f 101/101/101 100/100/100 96/96/96
f 102/102/102 99/99/99 101/101/101
f 102/102/102 101/101/101 96/96/96
f 105/105/105 104/104/104 103/103/103
f 104/104/104 106/106/106 103/103/103
f 104/104/104 107/107/107 106/106/106
f 105/105/105 103/103/103 108/108/108
f 109/109/109 105/105/105 108/108/108
f 107/107/107 109/109/109 110/110/110
f 107/107/107 110/110/110 106/106/106
f 109/109/109 108/108/108 110/110/110
f 108/108/108 103/103/103 111/111/111
f 103/103/103 106/106/106 112/112/112
f 103/103/103 112/112/112 111/111/111
f 106/106/106 110/110/110 113/113/113
f 106/106/106 113/113/113 112/112/112
f 110/110/110 108/108/108 114/114/114
f 108/108/108 111/111/111 114/114/114
f 110/110/110 114/114/114 113/113/113
f 112/112/112 113/113/113 115/115/115
f 111/111/111 112/112/112 116/116/116
f 112/112/112 115/115/115 116/116/116
f 114/114/114 111/111/111 117/117/117
f 111/111/111 116/116/116 117/117/117
f 113/113/113 114/114/114 118/118/118
f 113/113/113 118/118/118 115/115/115
f 114/114/114 117/117/117 118/118/118
f 117/117/117 116/116/116 119/119/119
f 117/117/117 119/119/119 120/120/120
f 118/118/118 117/117/117 120/120/120
f 116/116/116 121/121/121 119/119/119
f 116/116/116 115/115/115 121/121/121
f 118/118/118 120/120/120 122/122/122
f 115/115/115 122/122/122 121/121/121
f 115/115/115 118/118/118 122/122/122
f 125/125/125 124/124/124 123/123/123
f 126/126/126 125/125/125 123/123/123
f 127/127/127 125/125/125 126/126/126
f 123/123/123 124/124/124 128/128/128
f 124/124/124 129/129/129 128/128/128
f 129/129/129 127/127/127 130/130/130
f 130/130/130 127/127/127 126/126/126
f 128/128/128 129/129/129 130/130/130
f 123/123/123 128/128/128 131/131/131
f 126/126/126 123/123/123 132/132/132
f 132/132/132 123/123/123 131/131/131
f 130/130/130 126/126/126 133/133/133
f 133/133/133 126/126/126 132/132/132
f 128/128/128 130/130/130 134/134/134
f 131/131/131 128/128/128 134/134/134
f 134/134/134 130/130/130 133/133/133
f 133/133/133 132/132/132 135/135/135
f 132/132/132 131/131/131 136/136/136
f 135/135/135 132/132/132 136/136/136
f 131/131/131 134/134/134 137/137/137
f 136/136/136 131/131/131 137/137/137
f 134/134/134 133/133/133 138/138/138
f 138/138/138 133/133/133 135/135/135
f 137/137/137 134/134/134 138/138/138
f 136/136/136 137/137/137 139/139/139
f 139/139/139 137/137/137 140/140/140
f 137/137/137 138/138/138 140/140/140
f 141/141/141 136/136/136 139/139/139
f 135/135/135 136/136/136 141/141/141
f 140/140/140 138/138/138 142/142/142
f 142/142/142 135/135/135 141/141/141
f 138/138/138 135/135/135 142/142/142
