g TeleporterCollisionMesh
v 13.78055 -2.741133 -3.692739
v 14.05053 -1.127002E-05 -3.692739
v 13.78055 2.741111 -3.692739
v 12.981 5.376895 -3.692739
v 12.98099 -5.376915 -3.692739
v 11.68259 7.806049 -3.692739
v 11.68257 -7.806064 -3.692739
v 9.935229 9.935218 -3.692739
v 9.935206 -9.93523 -3.692739
v 7.806063 11.68258 -3.692739
v 7.806036 -11.68259 -3.692739
v 5.376912 12.98099 -3.692739
v 5.376884 -12.981 -3.692739
v 2.74113 13.78055 -3.692739
v 2.741099 -13.78055 -3.692739
v 5.839399E-08 14.05053 -3.692739
v 5.839399E-08 -14.05052 -3.692739
v -2.741098 -13.78055 -3.692739
v -2.74113 13.78055 -3.692739
v -5.376884 -12.981 -3.692739
v -5.376912 12.98099 -3.692739
v -7.806036 -11.68259 -3.692739
v -7.806063 11.68258 -3.692739
v -9.935206 -9.93523 -3.692739
v -9.935229 9.935218 -3.692739
v -11.68257 -7.806064 -3.692739
v -11.68259 7.806049 -3.692739
v -12.98099 -5.376915 -3.692739
v -12.981 5.376895 -3.692739
v -13.78055 -2.741133 -3.692739
v -13.78055 2.741111 -3.692739
v -14.05053 -1.127002E-05 -3.692739
v -14.20576 -2.825696 -3.624898
v -14.48407 5.016652E-06 -3.624898
v -7.029951 2.1818E-06 0.7613726
v -6.894872 1.371477 0.7613726
v -6.894872 -1.371473 0.7613726
v -14.20576 2.825705 -3.624898
v -13.38153 -5.542806 -3.624898
v -6.494828 -2.690243 0.7613726
v -6.494827 2.690248 0.7613726
v -13.38153 5.542817 -3.624898
v -12.04306 -8.04691 -3.624898
v -5.845191 -3.905628 0.7613726
v -5.84519 3.905634 0.7613726
v -12.04306 8.046922 -3.624898
v -10.24178 -10.24178 -3.624898
v -4.970926 -4.970923 0.7613726
v -4.970925 4.970929 0.7613726
v -10.24178 10.24179 -3.624898
v -8.046918 -12.04306 -3.624898
v -3.905632 -5.845189 0.7613726
v -3.90563 5.845193 0.7613726
v -8.046913 12.04307 -3.624898
v -5.542814 -13.38153 -3.624898
v -2.690246 -6.494826 0.7613726
v -2.690243 6.494831 0.7613726
v -5.542807 13.38154 -3.624898
v -2.825703 -14.20576 -3.624898
v -1.371476 -6.894871 0.7613726
v -1.371472 6.894875 0.7613726
v -2.825695 14.20576 -3.624898
v -1.297783E-06 -14.48406 -3.624898
v -5.953793E-07 -7.02995 0.7613726
v 3.818256E-06 7.029953 0.7613726
v 7.795792E-06 14.48407 -3.624898
v 2.825678 -14.20576 -3.624898
v 1.371464 -6.894873 0.7613726
v 1.37148 6.894874 0.7613726
v 2.82571 14.20576 -3.624898
v 5.542792 -13.38154 -3.624898
v 2.690236 -6.494831 0.7613726
v 2.690251 6.494828 0.7613726
v 5.542822 13.38153 -3.624898
v 8.046899 -12.04307 -3.624898
v 3.905623 -5.845195 0.7613726
v 3.905636 5.84519 0.7613726
v 8.046926 12.04306 -3.624898
v 10.24177 -10.24179 -3.624898
v 4.970919 -4.970931 0.7613726
v 4.970931 4.970924 0.7613726
v 10.24179 10.24178 -3.624898
v 12.04305 -8.046929 -3.624898
v 5.845186 -3.905638 0.7613726
v 5.845194 3.905629 0.7613726
v 12.04307 8.04691 -3.624898
v 13.38153 -5.542826 -3.624898
v 6.494825 -2.690253 0.7613726
v 6.494831 2.690241 0.7613726
v 13.38154 5.542803 -3.624898
v 14.20576 -2.825714 -3.624898
v 6.894872 -1.371482 0.7613726
v 6.894874 1.37147 0.7613726
v 14.20576 2.825691 -3.624898
v 14.48407 -1.22497E-05 -3.624898
v 7.029952 -6.198554E-06 0.7613726
vt 0.5735215 0.09699981
vt 0.5433106 0.1574215
vt 0.519574 0.2284698
vt 0.5032238 0.3074151
vt 0.6090458 0.04952694
vt 0.4948885 0.3912237
vt 0.6485183 0.0168273
vt 0.4948885 0.4766732
vt 0.6904223 0.0001569953
vt 0.5032237 0.560481
vt 0.7331471 0.0001572934
vt 0.5195737 0.6394262
vt 0.775051 0.01682784
vt 0.5433102 0.7104745
vt 0.8145235 0.04952825
vt 0.5735214 0.770897
vt 0.8500477 0.09700118
vt 0.8802587 0.1574233
vt 0.6090459 0.8183705
vt 0.9039954 0.2284724
vt 0.6485185 0.8510708
vt 0.9203457 0.3074183
vt 0.6904224 0.8677414
vt 0.9286808 0.3912253
vt 0.7331472 0.8677415
vt 0.9286808 0.4766751
vt 0.7750511 0.8510713
vt 0.9203457 0.5604826
vt 0.8145236 0.8183713
vt 0.9039957 0.6394275
vt 0.8500481 0.7708979
vt 0.880259 0.7104759
vt 0 0
vt 0 0
vt 0 0
vt 0 0
vt 0 0
vt 0 0
vt 0 0
vt 0 0
vt 0 0
vt 0 0
vt 0 0
vt 0 0
vt 0 0
vt 0 0
vt 0 0
vt 0 0
vt 0 0
vt 0 0
vt 0 0
vt 0 0
vt 0 0
vt 0 0
vt 0 0
vt 0 0
vt 0 0
vt 0 0
vt 0 0
vt 0 0
vt 0 0
vt 0 0
vt 0 0
vt 0 0
vt 0 0
vt 0 0
vt 0 0
vt 0 0
vt 0 0
vt 0 0
vt 0 0
vt 0 0
vt 0 0
vt 0 0
vt 0 0
vt 0 0
vt 0 0
vt 0 0
vt 0 0
vt 0 0
vt 0 0
vt 0 0
vt 0 0
vt 0 0
vt 0 0
vt 0 0
vt 0 0
vt 0 0
vt 0 0
vt 0 0
vt 0 0
vt 0 0
vt 0 0
vt 0 0
vt 0 0
vt 0 0
vn 0 0 -1
vn 0 0 -1
vn 0 0 -1
vn 0 0 -1
vn 0 0 -1
vn 0 0 -1
vn 0 0 -1
vn 0 0 -1
vn 0 0 -1
vn 0 0 -1
vn 0 0 -1
vn 0 0 -1
vn 0 0 -1
vn 0 0 -1
vn 0 0 -1
vn 0 0 -1
vn 0 0 -1
vn 0 0 -1
vn 0 0 -1
vn 0 0 -1
vn 0 0 -1
vn 0 0 -1
vn 0 0 -1
vn 0 0 -1
vn 0 0 -1
vn 0 0 -1
vn 0 0 -1
vn 0 0 -1
vn 0 0 -1
vn 0 0 -1
vn 0 0 -1
vn 0 0 -1
vn -0.9499725 -0.1889446 -0.2487013
vn -0.9685808 0 -0.2486992
vn -0.2779684 0 0.9605902
vn -0.2726279 0.05420208 0.9605916
vn -0.2726279 -0.05420208 0.9605916
vn -0.9499725 0.1889446 -0.2487013
vn -0.8948532 -0.3706556 -0.2487009
vn -0.25679 -0.10636 0.960597
vn -0.25679 0.10636 0.960597
vn -0.8948532 0.3706556 -0.2487009
vn -0.8053434 -0.5381165 -0.2487018
vn -0.2311217 -0.154427 0.960591
vn -0.2311217 0.154427 0.960591
vn -0.8053434 0.5381165 -0.2487018
vn -0.6848892 -0.6848892 -0.2487038
vn -0.1965441 -0.1965441 0.960594
vn -0.1965441 0.1965441 0.960594
vn -0.6848892 0.6848892 -0.2487038
vn -0.5381165 -0.8053434 -0.2487018
vn -0.154427 -0.2311217 0.960591
vn -0.154427 0.2311217 0.960591
vn -0.5381165 0.8053434 -0.2487018
vn -0.3706556 -0.8948532 -0.2487009
vn -0.10636 -0.25679 0.960597
vn -0.10636 0.25679 0.960597
vn -0.3706556 0.8948532 -0.2487009
vn -0.1889446 -0.9499725 -0.2487013
vn -0.05420208 -0.2726279 0.9605916
vn -0.05420208 0.2726279 0.9605916
vn -0.1889446 0.9499725 -0.2487013
vn 0 -0.9685808 -0.2486992
vn 0 -0.2779684 0.9605902
vn 0 0.2779684 0.9605902
vn 0 0.9685808 -0.2486992
vn 0.1889446 -0.9499725 -0.2487013
vn 0.05420208 -0.2726279 0.9605916
vn 0.05420208 0.2726279 0.9605916
vn 0.1889446 0.9499725 -0.2487013
vn 0.3706556 -0.8948532 -0.2487009
vn 0.10636 -0.25679 0.960597
vn 0.10636 0.25679 0.960597
vn 0.3706556 0.8948532 -0.2487009
vn 0.5381165 -0.8053434 -0.2487018
vn 0.154427 -0.2311217 0.960591
vn 0.154427 0.2311217 0.960591
vn 0.5381165 0.8053434 -0.2487018
vn 0.6848892 -0.6848892 -0.2487038
vn 0.1965441 -0.1965441 0.960594
vn 0.1965441 0.1965441 0.960594
vn 0.6848892 0.6848892 -0.2487038
vn 0.8053434 -0.5381165 -0.2487018
vn 0.2311217 -0.154427 0.960591
vn 0.2311217 0.154427 0.960591
vn 0.8053434 0.5381165 -0.2487018
vn 0.8948532 -0.3706556 -0.2487009
vn 0.25679 -0.10636 0.960597
vn 0.25679 0.10636 0.960597
vn 0.8948532 0.3706556 -0.2487009
vn 0.9499725 -0.1889446 -0.2487013
vn 0.2726279 -0.05420208 0.9605916
vn 0.2726279 0.05420208 0.9605916
vn 0.9499725 0.1889446 -0.2487013
vn 0.9685808 0 -0.2486992
vn 0.2779684 0 0.9605902
g TeleporterCollisionMesh_0
f 3/3/3 2/2/2 1/1/1
f 1/1/1 4/4/4 3/3/3
f 1/1/1 5/5/5 4/4/4
f 5/5/5 6/6/6 4/4/4
f 5/5/5 7/7/7 6/6/6
f 7/7/7 8/8/8 6/6/6
f 7/7/7 9/9/9 8/8/8
f 9/9/9 10/10/10 8/8/8
f 9/9/9 11/11/11 10/10/10
f 11/11/11 12/12/12 10/10/10
f 11/11/11 13/13/13 12/12/12
f 13/13/13 14/14/14 12/12/12
f 13/13/13 15/15/15 14/14/14
f 15/15/15 16/16/16 14/14/14
f 15/15/15 17/17/17 16/16/16
f 16/16/16 17/17/17 18/18/18
f 18/18/18 19/19/19 16/16/16
f 18/18/18 20/20/20 19/19/19
f 20/20/20 21/21/21 19/19/19
f 20/20/20 22/22/22 21/21/21
f 22/22/22 23/23/23 21/21/21
f 22/22/22 24/24/24 23/23/23
f 24/24/24 25/25/25 23/23/23
f 24/24/24 26/26/26 25/25/25
f 26/26/26 27/27/27 25/25/25
f 26/26/26 28/28/28 27/27/27
f 28/28/28 29/29/29 27/27/27
f 28/28/28 30/30/30 29/29/29
f 30/30/30 31/31/31 29/29/29
f 30/30/30 32/32/32 31/31/31
f 35/35/35 34/34/34 33/33/33
f 35/35/35 36/36/36 34/34/34
f 37/37/37 35/35/35 33/33/33
f 36/36/36 35/35/35 37/37/37
f 33/33/33 34/34/34 38/38/38
f 36/36/36 38/38/38 34/34/34
f 37/37/37 33/33/33 39/39/39
f 39/39/39 33/33/33 38/38/38
f 36/36/36 37/37/37 40/40/40
f 40/40/40 37/37/37 39/39/39
f 36/36/36 41/41/41 38/38/38
f 41/41/41 36/36/36 40/40/40
f 39/39/39 38/38/38 42/42/42
f 41/41/41 42/42/42 38/38/38
f 40/40/40 39/39/39 43/43/43
f 43/43/43 39/39/39 42/42/42
f 41/41/41 40/40/40 44/44/44
f 44/44/44 40/40/40 43/43/43
f 41/41/41 45/45/45 42/42/42
f 45/45/45 41/41/41 44/44/44
f 43/43/43 42/42/42 46/46/46
f 45/45/45 46/46/46 42/42/42
f 44/44/44 43/43/43 47/47/47
f 47/47/47 43/43/43 46/46/46
f 45/45/45 44/44/44 48/48/48
f 48/48/48 44/44/44 47/47/47
f 45/45/45 49/49/49 46/46/46
f 49/49/49 45/45/45 48/48/48
f 47/47/47 46/46/46 50/50/50
f 49/49/49 50/50/50 46/46/46
f 48/48/48 47/47/47 51/51/51
f 51/51/51 47/47/47 50/50/50
f 49/49/49 48/48/48 52/52/52
f 52/52/52 48/48/48 51/51/51
f 49/49/49 53/53/53 50/50/50
f 53/53/53 49/49/49 52/52/52
f 51/51/51 50/50/50 54/54/54
f 53/53/53 54/54/54 50/50/50
f 52/52/52 51/51/51 55/55/55
f 55/55/55 51/51/51 54/54/54
f 53/53/53 52/52/52 56/56/56
f 56/56/56 52/52/52 55/55/55
f 53/53/53 57/57/57 54/54/54
f 57/57/57 53/53/53 56/56/56
f 55/55/55 54/54/54 58/58/58
f 57/57/57 58/58/58 54/54/54
f 56/56/56 55/55/55 59/59/59
f 59/59/59 55/55/55 58/58/58
f 57/57/57 56/56/56 60/60/60
f 60/60/60 56/56/56 59/59/59
f 57/57/57 61/61/61 58/58/58
f 61/61/61 57/57/57 60/60/60
f 59/59/59 58/58/58 62/62/62
f 61/61/61 62/62/62 58/58/58
f 60/60/60 59/59/59 63/63/63
f 63/63/63 59/59/59 62/62/62
f 61/61/61 60/60/60 64/64/64
f 64/64/64 60/60/60 63/63/63
f 61/61/61 65/65/65 62/62/62
f 65/65/65 61/61/61 64/64/64
f 63/63/63 62/62/62 66/66/66
f 65/65/65 66/66/66 62/62/62
f 64/64/64 63/63/63 67/67/67
f 67/67/67 63/63/63 66/66/66
f 65/65/65 64/64/64 68/68/68
f 68/68/68 64/64/64 67/67/67
f 65/65/65 69/69/69 66/66/66
f 69/69/69 65/65/65 68/68/68
f 67/67/67 66/66/66 70/70/70
f 69/69/69 70/70/70 66/66/66
f 68/68/68 67/67/67 71/71/71
f 71/71/71 67/67/67 70/70/70
f 69/69/69 68/68/68 72/72/72
f 72/72/72 68/68/68 71/71/71
f 69/69/69 73/73/73 70/70/70
f 73/73/73 69/69/69 72/72/72
f 71/71/71 70/70/70 74/74/74
f 73/73/73 74/74/74 70/70/70
f 72/72/72 71/71/71 75/75/75
f 75/75/75 71/71/71 74/74/74
f 73/73/73 72/72/72 76/76/76
f 76/76/76 72/72/72 75/75/75
f 73/73/73 77/77/77 74/74/74
f 77/77/77 73/73/73 76/76/76
f 75/75/75 74/74/74 78/78/78
f 77/77/77 78/78/78 74/74/74
f 76/76/76 75/75/75 79/79/79
f 79/79/79 75/75/75 78/78/78
f 77/77/77 76/76/76 80/80/80
f 80/80/80 76/76/76 79/79/79
f 77/77/77 81/81/81 78/78/78
f 81/81/81 77/77/77 80/80/80
f 79/79/79 78/78/78 82/82/82
f 81/81/81 82/82/82 78/78/78
f 80/80/80 79/79/79 83/83/83
f 83/83/83 79/79/79 82/82/82
f 81/81/81 80/80/80 84/84/84
f 84/84/84 80/80/80 83/83/83
f 81/81/81 85/85/85 82/82/82
f 85/85/85 81/81/81 84/84/84
f 83/83/83 82/82/82 86/86/86
f 85/85/85 86/86/86 82/82/82
f 84/84/84 83/83/83 87/87/87
f 87/87/87 83/83/83 86/86/86
f 85/85/85 84/84/84 88/88/88
f 88/88/88 84/84/84 87/87/87
f 85/85/85 89/89/89 86/86/86
f 89/89/89 85/85/85 88/88/88
f 87/87/87 86/86/86 90/90/90
f 89/89/89 90/90/90 86/86/86
f 88/88/88 87/87/87 91/91/91
f 91/91/91 87/87/87 90/90/90
f 89/89/89 88/88/88 92/92/92
f 92/92/92 88/88/88 91/91/91
f 89/89/89 93/93/93 90/90/90
f 93/93/93 89/89/89 92/92/92
f 91/91/91 90/90/90 94/94/94
f 93/93/93 94/94/94 90/90/90
f 92/92/92 91/91/91 95/95/95
f 94/94/94 95/95/95 91/91/91
f 93/93/93 96/96/96 94/94/94
f 92/92/92 96/96/96 93/93/93
f 96/96/96 95/95/95 94/94/94
f 96/96/96 92/92/92 95/95/95
