g WPPlatform1StairsMesh.001
v 1.578188 -4.805787 0.9265984
v -1.579945 -4.911328 0.9265984
v -1.579945 -4.805787 0.9265984
v 1.578188 -4.911328 0.9265984
v 1.578188 -4.911328 0.8546866
v -1.579945 -4.911328 0.8546866
v -1.579945 -4.911328 0.1365108
v 1.578188 -4.911328 0.1365108
v -1.579945 -4.363875 0.1365108
v 1.578188 -4.363875 0.1365108
v -1.579945 -4.805787 0.9265984
v 1.578188 -4.805787 0.9950738
v 1.578188 -4.805787 0.9265984
v -1.579945 -4.805787 0.9950738
v 1.578188 -4.705289 0.9950738
v -1.579945 -4.705289 0.9950738
v -1.579945 -4.705289 0.9950738
v 1.578188 -4.705289 1.063549
v 1.578188 -4.705289 0.9950738
v -1.579945 -4.705289 1.063549
v 1.578188 -4.604791 1.063549
v -1.579945 -4.604791 1.063549
v -1.579945 -4.604791 1.063549
v 1.578188 -4.604791 1.132024
v 1.578188 -4.604791 1.063549
v -1.579945 -4.604791 1.132024
v 1.578188 -4.504294 1.132024
v -1.579945 -4.504294 1.132024
v -1.579945 -4.504294 1.132024
v 1.578188 -4.504294 1.2005
v 1.578188 -4.504294 1.132024
v -1.579945 -4.504294 1.2005
v 1.578188 -4.403796 1.2005
v -1.579945 -4.403796 1.2005
v 1.578188 -4.403796 1.2005
v -1.579945 -4.403796 1.2005
v -1.579945 -4.403791 1.272413
v 1.578188 -4.403791 1.272413
v 1.578188 -4.29825 1.272413
v -1.579945 -4.29825 1.272413
v -1.579945 -4.29825 1.272413
v 1.578188 -4.29825 1.340888
v 1.578188 -4.29825 1.272413
v -1.579945 -4.29825 1.340888
v 1.578188 -4.197752 1.340888
v -1.579945 -4.197752 1.340888
v -1.579945 -4.197752 1.340888
v 1.578188 -4.197752 1.409363
v 1.578188 -4.197752 1.340888
v -1.579945 -4.197752 1.409363
v 1.578188 -4.097254 1.409363
v -1.579945 -4.097254 1.409363
v -1.579945 -4.097254 1.409363
v 1.578188 -4.097254 1.477839
v 1.578188 -4.097254 1.409363
v -1.579945 -4.097254 1.477839
v 1.578188 -3.996757 1.477839
v -1.579945 -3.996757 1.477839
v -1.579945 -3.996757 1.477839
v 1.578188 -3.996757 1.546314
v 1.578188 -3.996757 1.477839
v -1.579945 -3.996757 1.546314
v 1.578188 -3.896259 1.546314
v -1.579945 -3.896259 1.546314
vt 0.5630753 0.693661
vt -0.4366532 0.5749525
vt -0.4366532 0.693661
vt 0.5630753 0.5749524
vt 0.5630753 0.5014222
vt -0.4366532 0.5014222
vt -0.4366532 0.5014222
vt 0.5630753 0.5014222
vt -0.4366532 0.5014222
vt 0.5630753 0.5014222
vt -0.6765797 0.5014235
vt 0.3231476 0.5714411
vt 0.3231476 0.5014247
vt -0.6765797 0.5714408
vt 0.3231476 0.6844767
vt -0.6765797 0.6844767
vt 0.0001357794 0.5034182
vt 0.9998624 0.5734348
vt 0.9998621 0.5034187
vt 0.0001357794 0.5734354
vt 0.9998624 0.6864696
vt 0.0001357794 0.6864711
vt 0.4061649 0.5005703
vt 1.405891 0.5705866
vt 1.405891 0.5005703
vt 0.4061649 0.5705875
vt 1.405892 0.6836214
vt 0.406165 0.6836233
vt 0.0001357794 0.5042198
vt 0.999863 0.5742361
vt 0.9998629 0.5042198
vt 0.0001357794 0.5742371
vt 0.999863 0.6872717
vt 0.0001358092 0.687273
vt 0.5630753 0.5014222
vt -0.4366532 0.5014222
vt -0.4366532 0.5749525
vt 0.5630753 0.5749524
vt 0.5630753 0.693661
vt -0.4366532 0.693661
vt -0.6765797 0.5014235
vt 0.3231476 0.5714411
vt 0.3231476 0.5014247
vt -0.6765797 0.5714408
vt 0.3231476 0.6844767
vt -0.6765797 0.6844767
vt 0.0001357794 0.5034182
vt 0.9998624 0.5734348
vt 0.9998621 0.5034187
vt 0.0001357794 0.5734354
vt 0.9998624 0.6864696
vt 0.0001357794 0.6864711
vt 0.4061649 0.5005703
vt 1.405891 0.5705866
vt 1.405891 0.5005703
vt 0.4061649 0.5705875
vt 1.405892 0.6836214
vt 0.406165 0.6836233
vt 0.0001357794 0.5042198
vt 0.999863 0.5742361
vt 0.9998629 0.5042198
vt 0.0001357794 0.5742371
vt 0.999863 0.6872717
vt 0.0001358092 0.687273
vn 0 -0.7071068 0.7071068
vn 0 -0.7071068 0.7071068
vn 0 -0.7071068 0.7071068
vn 0 -0.7071068 0.7071068
vn 0 -1 0
vn 0 -1 0
vn 0 -0.7071068 -0.7071068
vn 0 -0.7071068 -0.7071068
vn 0 0 -1
vn 0 0 -1
vn 0 -0.7071068 0.7071068
vn 0 -0.7071068 0.7071068
vn 0 -0.7071068 0.7071068
vn 0 -0.7071068 0.7071068
vn 0 -0.7071068 0.7071068
vn 0 -0.7071068 0.7071068
vn 0 -0.7071068 0.7071068
vn 0 -0.7071068 0.7071068
vn 0 -0.7071068 0.7071068
vn 0 -0.7071068 0.7071068
vn 0 -0.7071068 0.7071068
vn 0 -0.7071068 0.7071068
vn 0 -0.7071068 0.7071068
vn 0 -0.7071068 0.7071068
vn 0 -0.7071068 0.7071068
vn 0 -0.7071068 0.7071068
vn 0 -0.7071068 0.7071068
vn 0 -0.7071068 0.7071068
vn 0 -0.7071068 0.7071068
vn 0 -0.7071068 0.7071068
vn 0 -0.7071068 0.7071068
vn 0 -0.7071068 0.7071068
vn 0 -0.7070915 0.707122
vn 0 -0.7070915 0.707122
vn 0 -0.7070915 0.707122
vn 0 -0.7070915 0.707122
vn 0 -0.7070915 0.707122
vn 0 -0.7070915 0.707122
vn 0 -0.7071068 0.7071068
vn 0 -0.7071068 0.7071068
vn 0 -0.7071068 0.7071068
vn 0 -0.7071068 0.7071068
vn 0 -0.7071068 0.7071068
vn 0 -0.7071068 0.7071068
vn 0 -0.7071068 0.7071068
vn 0 -0.7071068 0.7071068
vn 0 -0.7071068 0.7071068
vn 0 -0.7071068 0.7071068
vn 0 -0.7071068 0.7071068
vn 0 -0.7071068 0.7071068
vn 0 -0.7071068 0.7071068
vn 0 -0.7071068 0.7071068
vn 0 -0.7071068 0.7071068
vn 0 -0.7071068 0.7071068
vn 0 -0.7071068 0.7071068
vn 0 -0.7071068 0.7071068
vn 0 -0.7071068 0.7071068
vn 0 -0.7071068 0.7071068
vn 0 -0.7071068 0.7071068
vn 0 -0.7071068 0.7071068
vn 0 -0.7071068 0.7071068
vn 0 -0.7071068 0.7071068
vn 0 0 1
vn 0 0 1
g WPPlatform1StairsMesh.001_0
f 3/3/3 2/2/2 1/1/1
f 2/2/2 4/4/4 1/1/1
f 4/4/4 2/2/2 5/5/5
f 2/2/2 6/6/6 5/5/5
f 6/6/6 7/7/7 5/5/5
f 7/7/7 8/8/8 5/5/5
f 7/7/7 9/9/9 8/8/8
f 9/9/9 10/10/10 8/8/8
f 13/13/13 12/12/12 11/11/11
f 12/12/12 14/14/14 11/11/11
f 12/12/12 15/15/15 14/14/14
f 15/15/15 16/16/16 14/14/14
f 19/19/19 18/18/18 17/17/17
f 18/18/18 20/20/20 17/17/17
f 18/18/18 21/21/21 20/20/20
f 21/21/21 22/22/22 20/20/20
f 25/25/25 24/24/24 23/23/23
f 24/24/24 26/26/26 23/23/23
f 24/24/24 27/27/27 26/26/26
f 27/27/27 28/28/28 26/26/26
f 31/31/31 30/30/30 29/29/29
f 30/30/30 32/32/32 29/29/29
f 30/30/30 33/33/33 32/32/32
f 33/33/33 34/34/34 32/32/32
f 37/37/37 36/36/36 35/35/35
f 38/38/38 37/37/37 35/35/35
f 37/37/37 38/38/38 39/39/39
f 40/40/40 37/37/37 39/39/39
f 43/43/43 42/42/42 41/41/41
f 42/42/42 44/44/44 41/41/41
f 42/42/42 45/45/45 44/44/44
f 45/45/45 46/46/46 44/44/44
f 49/49/49 48/48/48 47/47/47
f 48/48/48 50/50/50 47/47/47
f 48/48/48 51/51/51 50/50/50
f 51/51/51 52/52/52 50/50/50
f 55/55/55 54/54/54 53/53/53
f 54/54/54 56/56/56 53/53/53
f 54/54/54 57/57/57 56/56/56
f 57/57/57 58/58/58 56/56/56
f 61/61/61 60/60/60 59/59/59
f 60/60/60 62/62/62 59/59/59
f 60/60/60 63/63/63 62/62/62
f 63/63/63 64/64/64 62/62/62
