g meshTLPebbleA
v 0.05926819 0.03785507 -0.155643
v -0.02808332 0.08069083 -0.004346132
v -0.1154347 0.03785507 -0.1556431
v -0.02808332 -0.08881846 -0.004346132
v 0.05926819 -0.06164495 -0.155643
v -0.1154347 -0.06164495 -0.1556431
v 0.2638803 0.02442064 -0.1140025
v 0.2745362 0.0619496 0.06105454
v 0.1472842 0.02442064 -0.05963289
v 0.2745362 -0.08816624 0.06105454
v 0.2638803 -0.05063728 -0.1140025
v 0.1472842 -0.05063728 -0.05963289
v 0.3444611 -0.0007964365 -0.4856705
v 0.3156229 0.01151545 -0.4436457
v 0.3028971 -0.0007964365 -0.4929994
v 0.3156229 -0.03139859 -0.4436457
v 0.3444611 -0.02483394 -0.4856705
v 0.3028971 -0.02483394 -0.4929994
v -0.1154347 0.03785507 -0.1556431
v -0.02808332 0.08069083 -0.004346132
v -0.2027861 0.03785507 -0.004346159
v -0.1154347 -0.06164495 -0.1556431
v -0.2027861 -0.06164495 -0.004346159
v -0.02808332 -0.08881846 -0.004346132
v -0.1154347 0.03785507 0.1469508
v -0.02808332 0.08069083 -0.004346132
v -0.1154347 -0.06164495 0.1469508
v -0.02808332 -0.08881846 -0.004346132
v 0.05926796 0.03785507 0.1469509
v -0.02808332 0.08069083 -0.004346132
v 0.05926796 -0.06164495 0.1469509
v -0.02808332 -0.08881846 -0.004346132
v 0.1466194 0.03785507 -0.004345996
v -0.02808332 0.08069083 -0.004346132
v 0.1466194 -0.06164495 -0.004345996
v -0.02808332 -0.08881846 -0.004346132
v 0.05926819 0.03785507 -0.155643
v -0.02808332 0.08069083 -0.004346132
v 0.05926819 -0.06164495 -0.155643
v -0.02808332 -0.08881846 -0.004346132
v 0.05926819 -0.06164495 -0.155643
v 0.05926819 0.03785507 -0.155643
v -0.1154347 0.03785507 -0.1556431
v -0.1154347 -0.06164495 -0.1556431
v 0.1472842 0.02442064 -0.05963289
v 0.2745362 0.0619496 0.06105454
v 0.1579402 0.02442064 0.1154241
v 0.1472842 -0.05063728 -0.05963289
v 0.1579402 -0.05063728 0.1154241
v 0.2745362 -0.08816624 0.06105454
v 0.2851921 0.02442064 0.2361116
v 0.2745362 0.0619496 0.06105454
v 0.2851921 -0.05063728 0.2361116
v 0.2745362 -0.08816624 0.06105454
v 0.4017881 0.02442064 0.1817421
v 0.2745362 0.0619496 0.06105454
v 0.4017881 -0.05063728 0.1817421
v 0.2745362 -0.08816624 0.06105454
v 0.3911322 0.02442064 0.006685068
v 0.2745362 0.0619496 0.06105454
v 0.3911322 -0.05063728 0.006685068
v 0.2745362 -0.08816624 0.06105454
v 0.2638803 0.02442064 -0.1140025
v 0.2745362 0.0619496 0.06105454
v 0.2638803 -0.05063728 -0.1140025
v 0.2745362 -0.08816624 0.06105454
v 0.2638803 -0.05063728 -0.1140025
v 0.2638803 0.02442064 -0.1140025
v 0.1472842 0.02442064 -0.05963289
v 0.1472842 -0.05063728 -0.05963289
v 0.3028971 -0.0007964365 -0.4929994
v 0.3156229 0.01151545 -0.4436457
v 0.2740589 -0.0007964365 -0.4509746
v 0.3028971 -0.02483394 -0.4929994
v 0.2740589 -0.02483394 -0.4509746
v 0.3156229 -0.03139859 -0.4436457
v 0.2867846 -0.0007964365 -0.4016209
v 0.3156229 0.01151545 -0.4436457
v 0.2867846 -0.02483394 -0.4016209
v 0.3156229 -0.03139859 -0.4436457
v 0.3283486 -0.0007964365 -0.3942921
v 0.3156229 0.01151545 -0.4436457
v 0.3283486 -0.02483394 -0.3942921
v 0.3156229 -0.03139859 -0.4436457
v 0.3571869 -0.0007964365 -0.4363168
v 0.3156229 0.01151545 -0.4436457
v 0.3571869 -0.02483394 -0.4363168
v 0.3156229 -0.03139859 -0.4436457
v 0.3444611 -0.0007964365 -0.4856705
v 0.3156229 0.01151545 -0.4436457
v 0.3444611 -0.02483394 -0.4856705
v 0.3156229 -0.03139859 -0.4436457
v 0.3444611 -0.02483394 -0.4856705
v 0.3444611 -0.0007964365 -0.4856705
v 0.3028971 -0.0007964365 -0.4929994
v 0.3028971 -0.02483394 -0.4929994
v 0.3872183 0.01016237 -0.3751048
v 0.3444261 0.03343306 -0.2833365
v 0.3032103 0.01016237 -0.358417
v 0.3872183 -0.03527091 -0.3751048
v 0.3032103 -0.03527091 -0.358417
v 0.3444261 -0.04767877 -0.2833365
v 0.2604181 0.01016237 -0.2666488
v 0.3444261 0.03343306 -0.2833365
v 0.2604181 -0.03527091 -0.2666488
v 0.3444261 -0.04767877 -0.2833365
v 0.3016338 0.01016237 -0.1915683
v 0.3444261 0.03343306 -0.2833365
v 0.3016338 -0.03527091 -0.1915683
v 0.3444261 -0.04767877 -0.2833365
v 0.3856418 0.01016237 -0.2082559
v 0.3444261 0.03343306 -0.2833365
v 0.3856418 -0.03527091 -0.2082559
v 0.3444261 -0.04767877 -0.2833365
v 0.4284341 0.01016237 -0.3000241
v 0.3444261 0.03343306 -0.2833365
v 0.4284341 -0.03527091 -0.3000241
v 0.3444261 -0.04767877 -0.2833365
v 0.3872183 0.01016237 -0.3751048
v 0.3444261 0.03343306 -0.2833365
v 0.3872183 -0.03527091 -0.3751048
v 0.3444261 -0.04767877 -0.2833365
v 0.2299838 0.00165213 0.3982486
v 0.1925268 0.01641258 0.442888
v 0.1807986 0.00165213 0.3950121
v 0.2299838 -0.02716591 0.3982486
v 0.1807986 -0.02716591 0.3950121
v 0.1925268 -0.03503613 0.442888
v 0.1433416 0.00165213 0.4396515
v 0.1925268 0.01641258 0.442888
v 0.1433416 -0.02716591 0.4396515
v 0.1925268 -0.03503613 0.442888
v 0.1550699 0.00165213 0.4875275
v 0.1925268 0.01641258 0.442888
v 0.1550699 -0.02716591 0.4875275
v 0.1925268 -0.03503613 0.442888
v 0.2042551 0.00165213 0.490764
v 0.1925268 0.01641258 0.442888
v 0.2042551 -0.02716591 0.490764
v 0.1925268 -0.03503613 0.442888
v 0.2417121 0.00165213 0.4461246
v 0.1925268 0.01641258 0.442888
v 0.2417121 -0.02716591 0.4461246
v 0.1925268 -0.03503613 0.442888
v 0.2299838 0.00165213 0.3982486
v 0.1925268 0.01641258 0.442888
v 0.2299838 -0.02716591 0.3982486
v 0.1925268 -0.03503613 0.442888
v -0.2141502 -0.0007964365 0.3219124
v -0.2234527 0.01151545 0.3746698
v -0.2547969 -0.0007964365 0.3419441
v -0.2141502 -0.02483394 0.3219124
v -0.2547969 -0.02483394 0.3419441
v -0.2234527 -0.03139859 0.3746698
v -0.2640995 -0.0007964365 0.3947015
v -0.2234527 0.01151545 0.3746698
v -0.2640995 -0.02483394 0.3947015
v -0.2234527 -0.03139859 0.3746698
v -0.2327553 -0.0007964365 0.4274272
v -0.2234527 0.01151545 0.3746698
v -0.2327553 -0.02483394 0.4274272
v -0.2234527 -0.03139859 0.3746698
v -0.1921086 -0.0007964365 0.4073955
v -0.2234527 0.01151545 0.3746698
v -0.1921086 -0.02483394 0.4073955
v -0.2234527 -0.03139859 0.3746698
v -0.182806 -0.0007964365 0.3546381
v -0.2234527 0.01151545 0.3746698
v -0.182806 -0.02483394 0.3546381
v -0.2234527 -0.03139859 0.3746698
v -0.2141502 -0.0007964365 0.3219124
v -0.2234527 0.01151545 0.3746698
v -0.2141502 -0.02483394 0.3219124
v -0.2234527 -0.03139859 0.3746698
v -0.3016342 0.01016237 0.04451319
v -0.3444264 0.03343306 0.1362814
v -0.3856422 0.01016237 0.06120088
v -0.3016342 -0.03527091 0.04451319
v -0.3856422 -0.03527091 0.06120088
v -0.3444264 -0.04767877 0.1362814
v -0.4284344 0.01016237 0.1529691
v -0.3444264 0.03343306 0.1362814
v -0.4284344 -0.03527091 0.1529691
v -0.3444264 -0.04767877 0.1362814
v -0.3872187 0.01016237 0.2280496
v -0.3444264 0.03343306 0.1362814
v -0.3872187 -0.03527091 0.2280496
v -0.3444264 -0.04767877 0.1362814
v -0.3032106 0.01016237 0.211362
v -0.3444264 0.03343306 0.1362814
v -0.3032106 -0.03527091 0.211362
v -0.3444264 -0.04767877 0.1362814
v -0.2604184 0.01016237 0.1195938
v -0.3444264 0.03343306 0.1362814
v -0.2604184 -0.03527091 0.1195938
v -0.3444264 -0.04767877 0.1362814
v -0.3016342 0.01016237 0.04451319
v -0.3444264 0.03343306 0.1362814
v -0.3016342 -0.03527091 0.04451319
v -0.3444264 -0.04767877 0.1362814
vt 0.5374124 0.3169862
vt 0.5638731 0.4153403
vt 0.6075448 0.3334185
vt 0.5438199 0.1029406
vt 0.5374124 0.2095862
vt 0.5900376 0.1857137
vt 0.5374124 0.3169862
vt 0.5639107 0.425248
vt 0.6064263 0.3391205
vt 0.5431522 0.1013244
vt 0.5374124 0.2095862
vt 0.5886058 0.1874519
vt 0.5374124 0.3169862
vt 0.5638849 0.4216498
vt 0.6068224 0.3371013
vt 0.5419829 0.09693639
vt 0.5374124 0.2095862
vt 0.5899105 0.1828908
vt 0.2689125 0.3169862
vt 0.3113807 0.413356
vt 0.3226125 0.3169862
vt 0.2689125 0.2095862
vt 0.3226125 0.2095862
vt 0.2771577 0.1050568
vt 0.3763125 0.3169862
vt 0.3650807 0.413356
vt 0.3763125 0.2095862
vt 0.3308576 0.1050568
vt 0.4300125 0.3169862
vt 0.4187807 0.413356
vt 0.4300125 0.2095862
vt 0.3845576 0.1050568
vt 0.4837124 0.3169862
vt 0.4724807 0.413356
vt 0.4837124 0.2095862
vt 0.4382576 0.1050568
vt 0.5374124 0.3169862
vt 0.5261806 0.413356
vt 0.5374124 0.2095862
vt 0.4919576 0.1050568
vt 0.5432404 0.2311336
vt 0.5374124 0.3169862
vt 0.5877411 0.3228256
vt 0.5899718 0.236973
vt 0.2689125 0.3169862
vt 0.316943 0.4152556
vt 0.3226125 0.3169862
vt 0.2689125 0.2095862
vt 0.3226125 0.2095862
vt 0.2843159 0.1113168
vt 0.3763125 0.3169862
vt 0.3609091 0.4152555
vt 0.3763125 0.2095862
vt 0.328282 0.1113168
vt 0.4300125 0.3169862
vt 0.4224771 0.4234548
vt 0.4300125 0.2095862
vt 0.3838478 0.1031176
vt 0.4837124 0.3169862
vt 0.4780429 0.4152556
vt 0.4837124 0.2095862
vt 0.4454159 0.1113168
vt 0.5374124 0.3169862
vt 0.522009 0.4152555
vt 0.5374124 0.2095862
vt 0.4893819 0.1113168
vt 0.5420759 0.2442033
vt 0.5374124 0.3169862
vt 0.5847907 0.3279357
vt 0.5858569 0.2551527
vt 0.2689125 0.3169862
vt 0.3152418 0.4146746
vt 0.3226125 0.3169862
vt 0.2689125 0.2095862
vt 0.3226125 0.2095862
vt 0.2790546 0.1036132
vt 0.3763125 0.3169862
vt 0.362185 0.4146746
vt 0.3763125 0.2095862
vt 0.327904 0.1036132
vt 0.4300125 0.3169862
vt 0.421112 0.4197249
vt 0.4300125 0.2095862
vt 0.3822043 0.09862745
vt 0.4837124 0.3169862
vt 0.4763417 0.4146746
vt 0.4837124 0.2095862
vt 0.4401546 0.1036133
vt 0.5374124 0.3169862
vt 0.5232848 0.4146746
vt 0.5374124 0.2095862
vt 0.4890038 0.1036132
vt 0.5424911 0.23972
vt 0.5374124 0.3169862
vt 0.5860677 0.3257238
vt 0.5875493 0.2484575
vt 0.2420625 0.3169862
vt 0.2899815 0.4178236
vt 0.2957625 0.3169862
vt 0.2420625 0.2095862
vt 0.2957625 0.2095862
vt 0.2512091 0.1004105
vt 0.3494625 0.3169862
vt 0.3382307 0.413356
vt 0.3494625 0.2095862
vt 0.3040076 0.1050567
vt 0.4031625 0.3169862
vt 0.3897504 0.4178236
vt 0.4031625 0.2095862
vt 0.3534048 0.1004105
vt 0.4568625 0.3169862
vt 0.4510816 0.4178236
vt 0.4568625 0.2095862
vt 0.4123091 0.1004105
vt 0.5105624 0.3169862
vt 0.4993307 0.413356
vt 0.5105624 0.2095862
vt 0.4651076 0.1050568
vt 0.5642624 0.3169862
vt 0.5508503 0.4178236
vt 0.5642624 0.2095862
vt 0.5145048 0.1004105
vt 0.2420625 0.3169862
vt 0.2894066 0.4152157
vt 0.2957625 0.3169862
vt 0.2420625 0.2095862
vt 0.2957625 0.2095862
vt 0.2525538 0.1030391
vt 0.3494625 0.3169862
vt 0.33731 0.4108406
vt 0.3494625 0.2095862
vt 0.3050846 0.1079994
vt 0.4031625 0.3169862
vt 0.3884163 0.4152157
vt 0.4031625 0.2095862
vt 0.3539844 0.1030391
vt 0.4568625 0.3169862
vt 0.4505066 0.4152158
vt 0.4568625 0.2095862
vt 0.4136538 0.1030391
vt 0.5105624 0.3169862
vt 0.49841 0.4108406
vt 0.5105624 0.2095862
vt 0.4661847 0.1079993
vt 0.5642624 0.3169862
vt 0.5495163 0.4152157
vt 0.5642624 0.2095862
vt 0.5150844 0.1030391
vt 0.2420625 0.3169862
vt 0.2899816 0.4178236
vt 0.2957625 0.3169862
vt 0.2420625 0.2095862
vt 0.2957625 0.2095862
vt 0.2512091 0.1004106
vt 0.3494625 0.3169862
vt 0.3382307 0.413356
vt 0.3494625 0.2095862
vt 0.3040077 0.1050568
vt 0.4031625 0.3169862
vt 0.3897504 0.4178236
vt 0.4031625 0.2095862
vt 0.3534049 0.1004106
vt 0.4568625 0.3169862
vt 0.4510816 0.4178236
vt 0.4568625 0.2095862
vt 0.4123091 0.1004106
vt 0.5105624 0.3169862
vt 0.4993306 0.413356
vt 0.5105624 0.2095862
vt 0.4651076 0.1050568
vt 0.5642624 0.3169862
vt 0.5508503 0.4178236
vt 0.5642624 0.2095862
vt 0.5145047 0.1004105
vt 0.2420625 0.3169862
vt 0.2899815 0.4178236
vt 0.2957625 0.3169862
vt 0.2420625 0.2095862
vt 0.2957625 0.2095862
vt 0.2512091 0.1004105
vt 0.3494625 0.3169862
vt 0.3382307 0.413356
vt 0.3494625 0.2095862
vt 0.3040076 0.1050568
vt 0.4031625 0.3169862
vt 0.3897504 0.4178236
vt 0.4031625 0.2095862
vt 0.3534049 0.1004105
vt 0.4568625 0.3169862
vt 0.4510816 0.4178236
vt 0.4568625 0.2095862
vt 0.4123091 0.1004105
vt 0.5105624 0.3169862
vt 0.4993307 0.413356
vt 0.5105624 0.2095862
vt 0.4651076 0.1050568
vt 0.5642624 0.3169862
vt 0.5508504 0.4178236
vt 0.5642624 0.2095862
vt 0.5145048 0.1004105
vn 0.3426895 0.7281874 -0.5935547
vn 0 1 0
vn -0.3426889 0.7281873 -0.593555
vn 0 -1 0
vn 0.3269234 -0.7566276 -0.5662472
vn -0.3269229 -0.7566276 -0.5662473
vn 0.1341437 0.7711846 -0.6223181
vn 0 1 0
vn -0.5629488 0.7711846 -0.2972588
vn 0 -1 0
vn 0.1341437 -0.7711846 -0.6223181
vn -0.5629489 -0.7711847 -0.2972588
vn 0.4605891 0.7517791 -0.4718962
vn 0 1 0
vn -0.2714133 0.7517788 -0.6009686
vn 0 -1 0
vn 0.43602 -0.7841856 -0.4415196
vn -0.2587154 -0.7841854 -0.5640209
vn -0.3426889 0.7281873 -0.593555
vn 0 1 0
vn -0.6853783 0.7281872 0
vn -0.3269229 -0.7566276 -0.5662473
vn -0.6538461 -0.7566275 0
vn 0 -1 0
vn -0.3426893 0.7281873 0.5935549
vn 0 1 0
vn -0.3269232 -0.7566275 0.5662473
vn 0 -1 0
vn 0.3426888 0.7281872 0.5935552
vn 0 1 0
vn 0.3269227 -0.7566276 0.5662475
vn 0 -1 0
vn 0.6853782 0.7281873 5.371211E-07
vn 0 1 0
vn 0.6538461 -0.7566276 4.984636E-07
vn 0 -1 0
vn 0.3426895 0.7281874 -0.5935547
vn 0 1 0
vn 0.3269234 -0.7566276 -0.5662472
vn 0 -1 0
vn 0.3269234 -0.7566276 -0.5662472
vn 0.3426895 0.7281874 -0.5935547
vn -0.3426889 0.7281873 -0.593555
vn -0.3269229 -0.7566276 -0.5662473
vn -0.5629488 0.7711846 -0.2972588
vn 0 1 0
vn -0.6171432 0.7323372 0.2877786
vn -0.5629489 -0.7711847 -0.2972588
vn -0.6171432 -0.7323372 0.2877785
vn 0 -1 0
vn -0.1341436 0.7711846 0.6223181
vn 0 1 0
vn -0.1341436 -0.7711846 0.6223181
vn 0 -1 0
vn 0.5629489 0.7711846 0.2972588
vn 0 1 0
vn 0.5629489 -0.7711846 0.2972588
vn 0 -1 0
vn 0.6171434 0.7323372 -0.2877783
vn 0 1 0
vn 0.6171435 -0.7323372 -0.2877783
vn 0 -1 0
vn 0.1341437 0.7711846 -0.6223181
vn 0 1 0
vn 0.1341437 -0.7711846 -0.6223181
vn 0 -1 0
vn 0.1341437 -0.7711846 -0.6223181
vn 0.1341437 0.7711846 -0.6223181
vn -0.5629488 0.7711846 -0.2972588
vn -0.5629489 -0.7711847 -0.2972588
vn -0.2714133 0.7517788 -0.6009686
vn 0 1 0
vn -0.6762527 0.7269551 -0.1192416
vn -0.2587154 -0.7841854 -0.5640209
vn -0.6313712 -0.7674481 -0.1113279
vn 0 -1 0
vn -0.4605885 0.751779 0.4718968
vn 0 1 0
vn -0.4360195 -0.7841855 0.4415203
vn 0 -1 0
vn 0.271414 0.7517787 0.6009685
vn 0 1 0
vn 0.258716 -0.7841853 0.5640208
vn 0 -1 0
vn 0.6762527 0.7269551 0.1192419
vn 0 1 0
vn 0.6313711 -0.767448 0.1113281
vn 0 -1 0
vn 0.4605891 0.7517791 -0.4718962
vn 0 1 0
vn 0.43602 -0.7841856 -0.4415196
vn 0 -1 0
vn 0.43602 -0.7841856 -0.4415196
vn 0.4605891 0.7517791 -0.4718962
vn -0.2714133 0.7517788 -0.6009686
vn -0.2587154 -0.7841854 -0.5640209
vn 0.274491 0.7603608 -0.5886478
vn 0 1 0
vn -0.4283817 0.735178 -0.5253595
vn 0.258807 -0.7905561 -0.5550134
vn -0.4037797 -0.7727526 -0.4897094
vn 0 -1 0
vn -0.6778072 0.7351779 0.00953496
vn 0 1 0
vn -0.6346838 -0.7727526 0.00546574
vn 0 -1 0
vn -0.2744915 0.7603609 0.5886474
vn 0 1 0
vn -0.2588075 -0.7905564 0.5550129
vn 0 -1 0
vn 0.4283816 0.7351779 0.5253597
vn 0 1 0
vn 0.4037798 -0.7727525 0.4897096
vn 0 -1 0
vn 0.6778074 0.7351778 -0.009534529
vn 0 1 0
vn 0.6346841 -0.7727524 -0.005465284
vn 0 -1 0
vn 0.274491 0.7603608 -0.5886478
vn 0 1 0
vn 0.258807 -0.7905561 -0.5550134
vn 0 -1 0
vn 0.4331711 0.7388272 -0.5162336
vn 0 1 -1.763725E-07
vn -0.2853889 0.7133276 -0.6400914
vn 0.4084944 -0.7720969 -0.486825
vn -0.2703699 -0.7547301 -0.5977312
vn 0 -1 -1.043256E-07
vn -0.6799241 0.7133277 -0.1699023
vn 0 1 -1.763725E-07
vn -0.6355994 -0.7547303 -0.1624672
vn 0 -1 -1.043256E-07
vn -0.4331716 0.7388275 0.5162327
vn 0 1 -1.763725E-07
vn -0.4084949 -0.7720972 0.4868242
vn 0 -1 -1.043256E-07
vn 0.2853884 0.7133279 0.6400912
vn 0 1 -1.763725E-07
vn 0.2703694 -0.7547305 0.5977308
vn 0 -1 -1.043256E-07
vn 0.679924 0.7133278 0.1699029
vn 0 1 -1.763725E-07
vn 0.6355992 -0.7547303 0.1624678
vn 0 -1 -1.043256E-07
vn 0.4331711 0.7388272 -0.5162336
vn 0 1 -1.763725E-07
vn 0.4084944 -0.7720969 -0.486825
vn 0 -1 -1.043256E-07
vn 0.1127842 0.7603612 -0.6396332
vn 1.053852E-07 1 -1.208075E-07
vn -0.549758 0.7351778 -0.396585
vn 0.1063398 -0.7905567 -0.6030853
vn -0.5167676 -0.7727525 -0.3685172
vn 0 -1 0
vn -0.652244 0.7351775 0.1846398
vn 1.053852E-07 1 -1.208075E-07
vn -0.6116433 -0.7727522 0.1695481
vn 0 -1 0
vn -0.1127855 0.7603608 0.6396335
vn 1.053852E-07 1 -1.208075E-07
vn -0.1063411 -0.7905563 0.6030858
vn 0 -1 0
vn 0.5497577 0.7351781 0.3965848
vn 1.053852E-07 1 -1.208075E-07
vn 0.5167673 -0.7727528 0.3685169
vn 0 -1 0
vn 0.6522436 0.7351781 -0.1846387
vn 1.053852E-07 1 -1.208075E-07
vn 0.6116427 -0.7727528 -0.169547
vn 0 -1 0
vn 0.1127842 0.7603612 -0.6396332
vn 1.053852E-07 1 -1.208075E-07
vn 0.1063398 -0.7905567 -0.6030853
vn 0 -1 0
vn 0.2744912 0.7603609 -0.5886474
vn 0 1 0
vn -0.4283813 0.7351781 -0.5253595
vn 0.2588072 -0.7905564 -0.5550131
vn -0.4037795 -0.7727526 -0.4897094
vn 0 -1 0
vn -0.6778069 0.7351781 0.009534643
vn 0 1 0
vn -0.6346837 -0.7727526 0.00546543
vn 0 -1 0
vn -0.2744911 0.7603611 0.5886474
vn 0 1 0
vn -0.2588071 -0.7905566 0.5550129
vn 0 -1 0
vn 0.4283815 0.7351779 0.5253596
vn 0 1 0
vn 0.4037797 -0.7727525 0.4897096
vn 0 -1 0
vn 0.6778073 0.7351779 -0.009534573
vn 0 1 0
vn 0.634684 -0.7727525 -0.005465343
vn 0 -1 0
vn 0.2744912 0.7603609 -0.5886474
vn 0 1 0
vn 0.2588072 -0.7905564 -0.5550131
vn 0 -1 0
g meshTLPebbleA_0
f 3/3/3 2/2/2 1/1/1
f 6/6/6 5/5/5 4/4/4
f 9/9/9 8/8/8 7/7/7
f 12/12/12 11/11/11 10/10/10
f 15/15/15 14/14/14 13/13/13
f 18/18/18 17/17/17 16/16/16
f 21/21/21 20/20/20 19/19/19
f 21/21/21 19/19/19 22/22/22
f 23/23/23 21/21/21 22/22/22
f 23/23/23 22/22/22 24/24/24
f 25/25/25 21/21/21 23/23/23
f 25/25/25 26/26/26 21/21/21
f 27/27/27 25/25/25 23/23/23
f 27/27/27 23/23/23 28/28/28
f 29/29/29 25/25/25 27/27/27
f 29/29/29 30/30/30 25/25/25
f 31/31/31 29/29/29 27/27/27
f 31/31/31 27/27/27 32/32/32
f 33/33/33 29/29/29 31/31/31
f 33/33/33 34/34/34 29/29/29
f 35/35/35 33/33/33 31/31/31
f 35/35/35 31/31/31 36/36/36
f 37/37/37 33/33/33 35/35/35
f 37/37/37 38/38/38 33/33/33
f 39/39/39 37/37/37 35/35/35
f 39/39/39 35/35/35 40/40/40
f 43/43/43 42/42/42 41/41/41
f 44/44/44 43/43/43 41/41/41
f 47/47/47 46/46/46 45/45/45
f 47/47/47 45/45/45 48/48/48
f 49/49/49 47/47/47 48/48/48
f 49/49/49 48/48/48 50/50/50
f 51/51/51 47/47/47 49/49/49
f 51/51/51 52/52/52 47/47/47
f 53/53/53 51/51/51 49/49/49
f 53/53/53 49/49/49 54/54/54
f 55/55/55 51/51/51 53/53/53
f 55/55/55 56/56/56 51/51/51
f 57/57/57 55/55/55 53/53/53
f 57/57/57 53/53/53 58/58/58
f 59/59/59 55/55/55 57/57/57
f 59/59/59 60/60/60 55/55/55
f 61/61/61 59/59/59 57/57/57
f 61/61/61 57/57/57 62/62/62
f 63/63/63 59/59/59 61/61/61
f 63/63/63 64/64/64 59/59/59
f 65/65/65 63/63/63 61/61/61
f 65/65/65 61/61/61 66/66/66
f 69/69/69 68/68/68 67/67/67
f 70/70/70 69/69/69 67/67/67
f 73/73/73 72/72/72 71/71/71
f 73/73/73 71/71/71 74/74/74
f 75/75/75 73/73/73 74/74/74
f 75/75/75 74/74/74 76/76/76
f 77/77/77 73/73/73 75/75/75
f 77/77/77 78/78/78 73/73/73
f 79/79/79 77/77/77 75/75/75
f 79/79/79 75/75/75 80/80/80
f 81/81/81 77/77/77 79/79/79
f 81/81/81 82/82/82 77/77/77
f 83/83/83 81/81/81 79/79/79
f 83/83/83 79/79/79 84/84/84
f 85/85/85 81/81/81 83/83/83
f 85/85/85 86/86/86 81/81/81
f 87/87/87 85/85/85 83/83/83
f 87/87/87 83/83/83 88/88/88
f 89/89/89 85/85/85 87/87/87
f 89/89/89 90/90/90 85/85/85
f 91/91/91 89/89/89 87/87/87
f 91/91/91 87/87/87 92/92/92
f 95/95/95 94/94/94 93/93/93
f 96/96/96 95/95/95 93/93/93
f 99/99/99 98/98/98 97/97/97
f 99/99/99 97/97/97 100/100/100
f 101/101/101 99/99/99 100/100/100
f 101/101/101 100/100/100 102/102/102
f 103/103/103 99/99/99 101/101/101
f 103/103/103 104/104/104 99/99/99
f 105/105/105 103/103/103 101/101/101
f 105/105/105 101/101/101 106/106/106
f 107/107/107 103/103/103 105/105/105
f 107/107/107 108/108/108 103/103/103
f 109/109/109 107/107/107 105/105/105
f 109/109/109 105/105/105 110/110/110
f 111/111/111 107/107/107 109/109/109
f 111/111/111 112/112/112 107/107/107
f 113/113/113 111/111/111 109/109/109
f 113/113/113 109/109/109 114/114/114
f 115/115/115 111/111/111 113/113/113
f 115/115/115 116/116/116 111/111/111
f 117/117/117 115/115/115 113/113/113
f 117/117/117 113/113/113 118/118/118
f 119/119/119 115/115/115 117/117/117
f 119/119/119 120/120/120 115/115/115
f 121/121/121 119/119/119 117/117/117
f 121/121/121 117/117/117 122/122/122
f 125/125/125 124/124/124 123/123/123
f 125/125/125 123/123/123 126/126/126
f 127/127/127 125/125/125 126/126/126
f 127/127/127 126/126/126 128/128/128
f 129/129/129 125/125/125 127/127/127
f 129/129/129 130/130/130 125/125/125
f 131/131/131 129/129/129 127/127/127
f 131/131/131 127/127/127 132/132/132
f 133/133/133 129/129/129 131/131/131
f 133/133/133 134/134/134 129/129/129
f 135/135/135 133/133/133 131/131/131
f 135/135/135 131/131/131 136/136/136
f 137/137/137 133/133/133 135/135/135
f 137/137/137 138/138/138 133/133/133
f 139/139/139 137/137/137 135/135/135
f 139/139/139 135/135/135 140/140/140
f 141/141/141 137/137/137 139/139/139
f 141/141/141 142/142/142 137/137/137
f 143/143/143 141/141/141 139/139/139
f 143/143/143 139/139/139 144/144/144
f 145/145/145 141/141/141 143/143/143
f 145/145/145 146/146/146 141/141/141
f 147/147/147 145/145/145 143/143/143
f 147/147/147 143/143/143 148/148/148
f 151/151/151 150/150/150 149/149/149
f 151/151/151 149/149/149 152/152/152
f 153/153/153 151/151/151 152/152/152
f 153/153/153 152/152/152 154/154/154
f 155/155/155 151/151/151 153/153/153
f 155/155/155 156/156/156 151/151/151
f 157/157/157 155/155/155 153/153/153
f 157/157/157 153/153/153 158/158/158
f 159/159/159 155/155/155 157/157/157
f 159/159/159 160/160/160 155/155/155
f 161/161/161 159/159/159 157/157/157
f 161/161/161 157/157/157 162/162/162
f 163/163/163 159/159/159 161/161/161
f 163/163/163 164/164/164 159/159/159
f 165/165/165 163/163/163 161/161/161
f 165/165/165 161/161/161 166/166/166
f 167/167/167 163/163/163 165/165/165
f 167/167/167 168/168/168 163/163/163
f 169/169/169 167/167/167 165/165/165
f 169/169/169 165/165/165 170/170/170
f 171/171/171 167/167/167 169/169/169
f 171/171/171 172/172/172 167/167/167
f 173/173/173 171/171/171 169/169/169
f 173/173/173 169/169/169 174/174/174
f 177/177/177 176/176/176 175/175/175
f 177/177/177 175/175/175 178/178/178
f 179/179/179 177/177/177 178/178/178
f 179/179/179 178/178/178 180/180/180
f 181/181/181 177/177/177 179/179/179
f 181/181/181 182/182/182 177/177/177
f 183/183/183 181/181/181 179/179/179
f 183/183/183 179/179/179 184/184/184
f 185/185/185 181/181/181 183/183/183
f 185/185/185 186/186/186 181/181/181
f 187/187/187 185/185/185 183/183/183
f 187/187/187 183/183/183 188/188/188
f 189/189/189 185/185/185 187/187/187
f 189/189/189 190/190/190 185/185/185
f 191/191/191 189/189/189 187/187/187
f 191/191/191 187/187/187 192/192/192
f 193/193/193 189/189/189 191/191/191
f 193/193/193 194/194/194 189/189/189
f 195/195/195 193/193/193 191/191/191
f 195/195/195 191/191/191 196/196/196
f 197/197/197 193/193/193 195/195/195
f 197/197/197 198/198/198 193/193/193
f 199/199/199 197/197/197 195/195/195
f 199/199/199 195/195/195 200/200/200
