g Cube
v -0.9027653 -0.9027653 0.252671
v 0.6990688 -0.6990688 0.252671
v 0.9027653 -0.9027653 0.252671
v -0.6990688 -0.6990688 0.252671
v -0.9027653 0.9027653 0.252671
v -0.6990688 0.6990688 0.252671
v 0.9027653 0.9027653 0.252671
v 0.6990688 0.6990688 0.252671
v 0.9027653 -0.9027653 0.252671
v -0.9999999 -0.9999999 0.1554364
v -0.9999999 -0.9999999 -0.228902
v -0.9999999 0.9999999 -0.228902
v -0.9999999 0.9999999 0.1554364
v -0.9999999 -0.9999999 -0.228902
v 0.9999999 -0.9999999 -0.228902
v 0.9999999 0.9999999 -0.228902
v -0.9999999 0.9999999 -0.228902
v 0.6990688 -0.6990688 4.755188
v 0.6990688 -0.6990688 0.252671
v -0.6990688 -0.6990688 0.252671
v -0.6990688 -0.6990688 4.755188
v 0.3495344 -0.6990688 4.755188
v 0.6990688 -0.6990688 5.688969
v 0.3495344 -0.6990688 5.688969
v 0 -0.6990688 4.755188
v -0.3495344 -0.6990688 4.755188
v -0.3495344 -0.6990688 5.688969
v -0.6990688 -0.6990688 5.688969
v 0.9999999 0.9999999 0.1554364
v 0.9999999 0.9999999 -0.228902
v 0.9999999 -0.9999999 -0.228902
v 0.9999999 -0.9999999 0.1554364
v -0.9999999 0.9999999 0.1554364
v -0.9999999 0.9999999 -0.228902
v 0.9999999 0.9999999 -0.228902
v 0.9999999 0.9999999 0.1554364
v -0.6990688 0.6990688 4.755188
v -0.6990688 0.6990688 0.252671
v 0.6990688 0.6990688 0.252671
v 0.6990688 0.6990688 4.755188
v -0.3495344 0.6990688 4.755188
v -0.6990688 0.6990688 5.688969
v -0.3495344 0.6990688 5.688969
v 0 0.6990688 4.755188
v 0.3495344 0.6990688 4.755188
v 0.3495344 0.6990688 5.688969
v 0.6990688 0.6990688 5.688969
v 0.6990688 0.6990688 0.252671
v 0.6990688 -0.6990688 0.252671
v 0.6990688 -0.6990688 4.755188
v 0.6990688 0 4.755188
v 0.6990688 0.6990688 4.755188
v 0.6990688 0.6990688 5.688969
v 0.6990688 0 5.688969
v 0.6990688 0 5.688969
v 0.6990688 -0.6990688 5.688969
v 0.3495344 0 4.755188
v 0 0.6990688 4.755188
v 0.3495344 0.6990688 4.755188
v 0 0 4.755188
v -0.3495344 0.6990688 4.755188
v -0.3495344 0 4.755188
v 0 -0.6990688 4.755188
v -0.3495344 -0.6990688 4.755188
v 0.3495344 -0.6990688 4.755188
v 0 0 4.755188
v 0.3495344 0 4.755188
v 0.3495344 -0.6990688 5.688969
v 0.3495344 -0.6990688 4.755188
v 0.3495344 0 5.688969
v 0.3495344 0.6990688 4.755188
v 0.3495344 0.6990688 5.688969
v 0.3495344 0 4.755188
v -0.6990688 0.6990688 4.755188
v -0.6990688 0.6990688 5.688969
v -0.6990688 0 5.688969
v -0.6990688 0 4.755188
v -0.6990688 0.6990688 0.252671
v -0.6990688 -0.6990688 5.688969
v -0.6990688 -0.6990688 0.252671
v -0.6990688 -0.6990688 4.755188
v -0.3495344 -0.6990688 4.755188
v -0.3495344 -0.6990688 5.688969
v -0.3495344 0 5.688969
v -0.3495344 0 4.755188
v -0.3495344 0.6990688 5.688969
v -0.3495344 0.6990688 4.755188
v 0.9284517 -0.9284517 5.688969
v 0.9284517 -0.9284517 5.912982
v 0.9284517 0 5.912982
v 0.9284517 0 5.688969
v 0.9284517 0.9284517 5.912982
v 0.9284517 0.9284517 5.688969
v 0.9284517 0.9284517 5.688969
v 0.9284517 0.9284517 5.912982
v 0.4642259 0.9284517 5.912982
v 0.4642259 0.9284517 5.688969
v -0.4642259 0.9284517 5.688969
v -0.4642259 0.9284517 5.912982
v -0.9284517 0.9284517 5.912982
v -0.9284517 0.9284517 5.688969
v -0.9284517 0 5.688969
v -0.9284517 -0.9284517 5.912982
v -0.9284517 -0.9284517 5.688969
v -0.9284517 0 5.912982
v -0.9284517 0.9284517 5.688969
v -0.9284517 0.9284517 5.912982
v 0.4642259 -0.9284517 5.688969
v 0.9284517 -0.9284517 5.912982
v 0.9284517 -0.9284517 5.688969
v 0.4642259 -0.9284517 5.912982
v -0.4642259 -0.9284517 5.912982
v -0.4642259 -0.9284517 5.688969
v -0.9284517 -0.9284517 5.688969
v -0.9284517 -0.9284517 5.912982
v 0.9284517 0 5.912982
v 0.6564575 0.6564575 6.207735
v 0.9284517 0.9284517 5.912982
v 0.6564575 0 6.207735
v 0.9284517 -0.9284517 5.912982
v 0.6564575 -0.6564575 6.207735
v 0.9284517 0.9284517 5.912982
v 0.6564575 0.6564575 6.207735
v 0.3282288 0.6564575 6.207735
v 0.4642259 0.9284517 5.912982
v -0.3282288 0.6564575 6.207735
v -0.4642259 0.9284517 5.912982
v -0.6564575 0.6564575 6.207735
v -0.9284517 0.9284517 5.912982
v -0.9284517 0 5.912982
v -0.6564575 -0.6564575 6.207735
v -0.9284517 -0.9284517 5.912982
v -0.6564575 0 6.207735
v -0.9284517 0.9284517 5.912982
v -0.6564575 0.6564575 6.207735
v 0.4642259 -0.9284517 5.912982
v 0.6564575 -0.6564575 6.207735
v 0.9284517 -0.9284517 5.912982
v 0.3282288 -0.6564575 6.207735
v -0.4642259 -0.9284517 5.912982
v -0.3282288 -0.6564575 6.207735
v -0.9284517 -0.9284517 5.912982
v -0.6564575 -0.6564575 6.207735
v 0.6564575 0 6.207735
v 0.3282288 0.6564575 6.207735
v 0.6564575 0.6564575 6.207735
v 0.3282288 0 6.207735
v 0.6564575 -0.6564575 6.207735
v 0.3282288 -0.6564575 6.207735
v -0.3282288 0.6564575 6.207735
v -0.3282288 -0.6564575 6.207735
v -0.3282288 0 6.207735
v -0.6564575 0.6564575 6.207735
v -0.6564575 0 6.207735
v -0.6564575 -0.6564575 6.207735
v -0.9027653 -0.9027653 0.252671
v -0.9999999 -0.9999999 0.1554364
v -0.9999999 0.9999999 0.1554364
v -0.9027653 0.9027653 0.252671
v -0.9027653 0.9027653 0.252671
v -0.9999999 0.9999999 0.1554364
v 0.9999999 0.9999999 0.1554364
v 0.9027653 0.9027653 0.252671
v 0.9027653 0.9027653 0.252671
v 0.9999999 0.9999999 0.1554364
v 0.9999999 -0.9999999 0.1554364
v 0.9027653 -0.9027653 0.252671
v 0.9027653 -0.9027653 0.252671
v 0.9999999 -0.9999999 0.1554364
v -0.9999999 -0.9999999 0.1554364
v -0.9027653 -0.9027653 0.252671
v 0.9999999 -0.9999999 0.1554364
v 0.9999999 -0.9999999 -0.228902
v -0.9999999 -0.9999999 -0.228902
v -0.9999999 -0.9999999 0.1554364
v 0.6990688 0.6990688 5.688969
v 0.4642259 0.9284517 5.688969
v 0.3495344 0.6990688 5.688969
v -0.3495344 0.6990688 5.688969
v 0.9284517 0.9284517 5.688969
v -0.4642259 0.9284517 5.688969
v 0.6990688 0 5.688969
v -0.9284517 0.9284517 5.688969
v 0.9284517 0 5.688969
v -0.6990688 0.6990688 5.688969
v 0.6990688 -0.6990688 5.688969
v -0.9284517 0 5.688969
v 0.9284517 -0.9284517 5.688969
v -0.6990688 0 5.688969
v -0.9284517 -0.9284517 5.688969
v -0.6990688 -0.6990688 5.688969
v 0.3495344 -0.6990688 5.688969
v 0.4642259 -0.9284517 5.688969
v -0.4642259 -0.9284517 5.688969
v -0.3495344 -0.6990688 5.688969
vt 0.1259636 0.9748306
vt 0.1474617 0.7704186
vt 0.1259635 0.7444246
vt 0.1474618 0.9488367
vt 0.3165198 0.9748306
vt 0.2950216 0.9488366
vt 0.3165198 0.7444245
vt 0.2950216 0.7704185
vt 0.1259635 0.7444246
vt 0.9488827 0.9872389
vt 0.9894459 0.9872389
vt 0.9894459 0.7320163
vt 0.9488827 0.7320163
vt 0.5589706 0.9872388
vt 0.5589706 0.7320163
vt 0.34789 0.7320164
vt 0.3478901 0.9872389
vt 0.34789 0.131922
vt 0.3478901 0.706494
vt 0.49545 0.706494
vt 0.4954499 0.131922
vt 0.38478 0.131922
vt 0.34789 0.01276113
vt 0.38478 0.01276113
vt 0.42167 0.131922
vt 0.4585599 0.131922
vt 0.4585599 0.01276113
vt 0.4954499 0.01276113
vt 0.02081626 0.9872388
vt 0.06137946 0.9872388
vt 0.06137941 0.7320163
vt 0.0208162 0.7320163
vt 0.9424157 0.6649891
vt 0.9829789 0.6649891
vt 0.9829789 0.4097665
vt 0.9424157 0.4097666
vt 0.326782 0.5873331
vt 0.3267819 0.01276113
vt 0.179222 0.01276115
vt 0.1792221 0.5873331
vt 0.289892 0.5873331
vt 0.326782 0.706494
vt 0.289892 0.706494
vt 0.253002 0.5873331
vt 0.2161121 0.5873331
vt 0.2161121 0.706494
vt 0.1792221 0.7064941
vt 0.6641179 0.01276113
vt 0.5165581 0.01276113
vt 0.516558 0.5873331
vt 0.5903379 0.5873331
vt 0.6641179 0.5873331
vt 0.6641179 0.7064941
vt 0.5903379 0.706494
vt 0.5903379 0.706494
vt 0.516558 0.706494
vt 0.9545243 0.2950352
vt 0.9176343 0.3842443
vt 0.9545243 0.3842443
vt 0.9176343 0.2950352
vt 0.8807443 0.3842443
vt 0.8807443 0.2950352
vt 0.9176343 0.2058262
vt 0.8807443 0.2058261
vt 0.9545243 0.2058262
vt 0.9176343 0.2950352
vt 0.7837774 0.4989756
vt 0.685226 0.5881847
vt 0.7837774 0.5881847
vt 0.685226 0.4989756
vt 0.7837774 0.4097666
vt 0.685226 0.4097666
vt 0.7837774 0.4989756
vt 0.1581139 0.131922
vt 0.1581139 0.01276113
vt 0.08433396 0.01276113
vt 0.08433397 0.131922
vt 0.158114 0.706494
vt 0.01055403 0.01276113
vt 0.01055412 0.706494
vt 0.01055404 0.131922
vt 0.7837774 0.2058261
vt 0.685226 0.2058262
vt 0.685226 0.2950352
vt 0.7837774 0.2950352
vt 0.685226 0.3842443
vt 0.7837773 0.3842443
vt 0.9277747 0.7320163
vt 0.9041322 0.7320163
vt 0.9041322 0.8504972
vt 0.9277747 0.8504972
vt 0.9041322 0.9689782
vt 0.9277747 0.9689782
vt 0.8519158 0.7320163
vt 0.8282734 0.7320163
vt 0.8282734 0.7912568
vt 0.8519158 0.7912568
vt 0.8519158 0.9097377
vt 0.8282734 0.9097377
vt 0.8282734 0.9689782
vt 0.8519158 0.9689782
vt 0.8596363 0.5867912
vt 0.8359939 0.7052721
vt 0.8596363 0.7052721
vt 0.8359939 0.5867912
vt 0.8596363 0.4683103
vt 0.8359939 0.4683103
vt 0.8048854 0.2650666
vt 0.8285279 0.2058261
vt 0.8048854 0.2058262
vt 0.8285279 0.2650666
vt 0.8285279 0.3835475
vt 0.8048854 0.3835475
vt 0.8048854 0.442788
vt 0.8285279 0.442788
vt 0.9041322 0.8504972
vt 0.8730238 0.9342687
vt 0.9041322 0.9689782
vt 0.8730238 0.8504972
vt 0.9041322 0.7320163
vt 0.8730238 0.7667258
vt 0.8282734 0.7320163
vt 0.7971649 0.7667259
vt 0.7971649 0.8086116
vt 0.8282734 0.7912568
vt 0.7971649 0.892383
vt 0.8282734 0.9097377
vt 0.7971649 0.9342687
vt 0.8282734 0.9689782
vt 0.8359939 0.5867912
vt 0.8048854 0.6705626
vt 0.8359939 0.7052721
vt 0.8048854 0.5867912
vt 0.8359939 0.4683103
vt 0.8048854 0.5030198
vt 0.8285279 0.2650666
vt 0.8596363 0.2405357
vt 0.8285279 0.2058261
vt 0.8596363 0.2824214
vt 0.8285279 0.3835475
vt 0.8596363 0.3661928
vt 0.8285279 0.442788
vt 0.8596363 0.4080785
vt 0.8237914 0.09653249
vt 0.7891501 0.1803039
vt 0.8237914 0.1803039
vt 0.7891501 0.0965325
vt 0.8237914 0.01276113
vt 0.78915 0.01276113
vt 0.7198673 0.1803039
vt 0.7198673 0.01276113
vt 0.7198673 0.09653252
vt 0.685226 0.1803039
vt 0.685226 0.09653252
vt 0.685226 0.01276114
vt 0.1259636 0.9748306
vt 0.1157014 0.9872389
vt 0.326782 0.9872388
vt 0.3165198 0.9748306
vt 0.3165198 0.9748306
vt 0.326782 0.9872388
vt 0.3267819 0.7320163
vt 0.3165198 0.7444245
vt 0.0105541 0.9748306
vt 0.02081626 0.9872388
vt 0.0208162 0.7320163
vt 0.01055403 0.7444245
vt 0.1259635 0.7444246
vt 0.1157014 0.7320164
vt 0.1157014 0.9872389
vt 0.1259636 0.9748306
vt 0.9213076 0.4097665
vt 0.8807443 0.4097665
vt 0.8807444 0.6649891
vt 0.9213076 0.6649891
vt 0.6042879 0.9397063
vt 0.6290733 0.9689781
vt 0.6411778 0.9397063
vt 0.7149577 0.9397063
vt 0.5800787 0.9689781
vt 0.7270623 0.9689782
vt 0.6042879 0.8504972
vt 0.7760568 0.9689782
vt 0.5800787 0.8504972
vt 0.7518477 0.9397063
vt 0.6042879 0.7612882
vt 0.7760569 0.8504972
vt 0.5800787 0.7320163
vt 0.7518477 0.8504972
vt 0.7760569 0.7320164
vt 0.7518477 0.7612882
vt 0.6411778 0.7612882
vt 0.6290733 0.7320163
vt 0.7270623 0.7320164
vt 0.7149578 0.7612882
vn 0 0 1
vn 0 0 1
vn 0 0 1
vn 0 0 1
vn 0 0 1
vn 0 0 1
vn 0 0 1
vn 0 0 1
vn 0 0 1
vn -1 0 0
vn -1 0 0
vn -1 0 0
vn -1 0 0
vn 0 0 -1
vn 0 0 -1
vn 0 0 -1
vn 0 0 -1
vn 0 -1 0
vn 0 -1 0
vn 0 -1 0
vn 0 -1 0
vn 0 -1 0
vn 0 -1 0
vn 0 -1 0
vn 0 -1 0
vn 0 -1 0
vn 0 -1 0
vn 0 -1 0
vn 1 0 0
vn 1 0 0
vn 1 0 0
vn 1 0 0
vn 0 1 0
vn 0 1 0
vn 0 1 0
vn 0 1 0
vn 0 1 0
vn 0 1 0
vn 0 1 0
vn 0 1 0
vn 0 1 0
vn 0 1 0
vn 0 1 0
vn 0 1 0
vn 0 1 0
vn 0 1 0
vn 0 1 0
vn 1 0 0
vn 1 0 0
vn 1 0 0
vn 1 0 0
vn 1 0 0
vn 1 0 0
vn 1 0 0
vn 1 0 0
vn 1 0 0
vn 0 0 1
vn 0 0 1
vn 0 0 1
vn 0 0 1
vn 0 0 1
vn 0 0 1
vn 0 0 1
vn 0 0 1
vn 0 0 1
vn 0 0 1
vn -1 0 0
vn -1 0 0
vn -1 0 0
vn -1 0 0
vn -1 0 0
vn -1 0 0
vn -1 0 0
vn -1 0 0
vn -1 0 0
vn -1 0 0
vn -1 0 0
vn -1 0 0
vn -1 0 0
vn -1 0 0
vn -1 0 0
vn 1 0 0
vn 1 0 0
vn 1 0 0
vn 1 0 0
vn 1 0 0
vn 1 0 0
vn 1 0 0
vn 1 0 0
vn 1 0 0
vn 1 0 0
vn 1 0 0
vn 1 0 0
vn 0 1 0
vn 0 1 0
vn 0 1 0
vn 0 1 0
vn 0 1 0
vn 0 1 0
vn 0 1 0
vn 0 1 0
vn -1 0 0
vn -1 0 0
vn -1 0 0
vn -1 0 0
vn -1 0 0
vn -1 0 0
vn 0 -1 0
vn 0 -1 0
vn 0 -1 0
vn 0 -1 0
vn 0 -1 0
vn 0 -1 0
vn 0 -1 0
vn 0 -1 0
vn 0.7349107 0 0.6781638
vn 0.7349107 0 0.6781638
vn 0.7349107 0 0.6781638
vn 0.7349107 0 0.6781638
vn 0.7349107 0 0.6781638
vn 0.7349107 0 0.6781638
vn 0 0.7349108 0.6781638
vn 0 0.7349108 0.6781638
vn 0 0.7349108 0.6781638
vn 0 0.7349108 0.6781638
vn 0 0.7349108 0.6781638
vn 0 0.7349108 0.6781638
vn 0 0.7349108 0.6781638
vn 0 0.7349108 0.6781638
vn -0.7349107 0 0.6781638
vn -0.7349107 0 0.6781638
vn -0.7349107 0 0.6781638
vn -0.7349107 0 0.6781638
vn -0.7349107 0 0.6781638
vn -0.7349107 0 0.6781638
vn 0 -0.7349108 0.6781638
vn 0 -0.7349108 0.6781638
vn 0 -0.7349108 0.6781638
vn 0 -0.7349108 0.6781638
vn 0 -0.7349108 0.6781638
vn 0 -0.7349108 0.6781638
vn 0 -0.7349108 0.6781638
vn 0 -0.7349108 0.6781638
vn 0 0 1
vn 0 0 1
vn 0 0 1
vn 0 0 1
vn 0 0 1
vn 0 0 1
vn 0 0 1
vn 0 0 1
vn 0 0 1
vn 0 0 1
vn 0 0 1
vn 0 0 1
vn -0.7071068 0 0.7071068
vn -0.7071068 0 0.7071068
vn -0.7071068 0 0.7071068
vn -0.7071068 0 0.7071068
vn 0 0.7071066 0.7071069
vn 0 0.7071066 0.7071069
vn 0 0.7071066 0.7071069
vn 0 0.7071066 0.7071069
vn 0.7071068 0 0.7071068
vn 0.7071068 0 0.7071068
vn 0.7071068 0 0.7071068
vn 0.7071068 0 0.7071068
vn 0 -0.7071066 0.7071069
vn 0 -0.7071066 0.7071069
vn 0 -0.7071066 0.7071069
vn 0 -0.7071066 0.7071069
vn 0 -1 0
vn 0 -1 0
vn 0 -1 0
vn 0 -1 0
vn 0 0 -1
vn 0 0 -1
vn 0 0 -1
vn 0 0 -1
vn 0 0 -1
vn 0 0 -1
vn 0 0 -1
vn 0 0 -1
vn 0 0 -1
vn 0 0 -1
vn 0 0 -1
vn 0 0 -1
vn 0 0 -1
vn 0 0 -1
vn 0 0 -1
vn 0 0 -1
vn 0 0 -1
vn 0 0 -1
vn 0 0 -1
vn 0 0 -1
g Cube_0
f 3/3/3 2/2/2 1/1/1
f 2/2/2 4/4/4 1/1/1
f 1/1/1 4/4/4 5/5/5
f 4/4/4 6/6/6 5/5/5
f 5/5/5 6/6/6 7/7/7
f 6/6/6 8/8/8 7/7/7
f 8/8/8 2/2/2 9/9/9
f 7/7/7 8/8/8 9/9/9
f 12/12/12 11/11/11 10/10/10
f 13/13/13 12/12/12 10/10/10
f 16/16/16 15/15/15 14/14/14
f 17/17/17 16/16/16 14/14/14
f 20/20/20 19/19/19 18/18/18
f 18/18/18 21/21/21 20/20/20
f 18/18/18 22/22/22 21/21/21
f 18/18/18 23/23/23 22/22/22
f 23/23/23 24/24/24 22/22/22
f 22/22/22 25/25/25 21/21/21
f 25/25/25 26/26/26 21/21/21
f 26/26/26 27/27/27 21/21/21
f 27/27/27 28/28/28 21/21/21
f 31/31/31 30/30/30 29/29/29
f 32/32/32 31/31/31 29/29/29
f 35/35/35 34/34/34 33/33/33
f 36/36/36 35/35/35 33/33/33
f 39/39/39 38/38/38 37/37/37
f 37/37/37 40/40/40 39/39/39
f 37/37/37 41/41/41 40/40/40
f 37/37/37 42/42/42 41/41/41
f 42/42/42 43/43/43 41/41/41
f 41/41/41 44/44/44 40/40/40
f 44/44/44 45/45/45 40/40/40
f 45/45/45 46/46/46 40/40/40
f 46/46/46 47/47/47 40/40/40
f 50/50/50 49/49/49 48/48/48
f 48/48/48 51/51/51 50/50/50
f 48/48/48 52/52/52 51/51/51
f 52/52/52 53/53/53 51/51/51
f 53/53/53 54/54/54 51/51/51
f 51/51/51 55/55/55 50/50/50
f 55/55/55 56/56/56 50/50/50
f 59/59/59 58/58/58 57/57/57
f 58/58/58 60/60/60 57/57/57
f 58/58/58 61/61/61 60/60/60
f 61/61/61 62/62/62 60/60/60
f 60/60/60 62/62/62 63/63/63
f 62/62/62 64/64/64 63/63/63
f 57/57/57 66/66/66 65/65/65
f 66/66/66 63/63/63 65/65/65
f 69/69/69 68/68/68 67/67/67
f 68/68/68 70/70/70 67/67/67
f 70/70/70 72/72/72 71/71/71
f 73/73/73 70/70/70 71/71/71
f 76/76/76 75/75/75 74/74/74
f 77/77/77 76/76/76 74/74/74
f 77/77/77 74/74/74 78/78/78
f 79/79/79 76/76/76 77/77/77
f 77/77/77 78/78/78 80/80/80
f 81/81/81 79/79/79 77/77/77
f 80/80/80 81/81/81 77/77/77
f 84/84/84 83/83/83 82/82/82
f 85/85/85 84/84/84 82/82/82
f 86/86/86 84/84/84 85/85/85
f 87/87/87 86/86/86 85/85/85
f 90/90/90 89/89/89 88/88/88
f 91/91/91 90/90/90 88/88/88
f 92/92/92 90/90/90 91/91/91
f 93/93/93 92/92/92 91/91/91
f 96/96/96 95/95/95 94/94/94
f 97/97/97 96/96/96 94/94/94
f 96/96/96 97/97/97 98/98/98
f 99/99/99 96/96/96 98/98/98
f 100/100/100 99/99/99 98/98/98
f 101/101/101 100/100/100 98/98/98
f 104/104/104 103/103/103 102/102/102
f 103/103/103 105/105/105 102/102/102
f 102/102/102 105/105/105 106/106/106
f 105/105/105 107/107/107 106/106/106
f 110/110/110 109/109/109 108/108/108
f 109/109/109 111/111/111 108/108/108
f 111/111/111 112/112/112 108/108/108
f 112/112/112 113/113/113 108/108/108
f 113/113/113 112/112/112 114/114/114
f 112/112/112 115/115/115 114/114/114
f 118/118/118 117/117/117 116/116/116
f 117/117/117 119/119/119 116/116/116
f 116/116/116 119/119/119 120/120/120
f 119/119/119 121/121/121 120/120/120
f 124/124/124 123/123/123 122/122/122
f 125/125/125 124/124/124 122/122/122
f 126/126/126 124/124/124 125/125/125
f 127/127/127 126/126/126 125/125/125
f 128/128/128 126/126/126 127/127/127
f 129/129/129 128/128/128 127/127/127
f 132/132/132 131/131/131 130/130/130
f 131/131/131 133/133/133 130/130/130
f 130/130/130 133/133/133 134/134/134
f 133/133/133 135/135/135 134/134/134
f 138/138/138 137/137/137 136/136/136
f 137/137/137 139/139/139 136/136/136
f 136/136/136 139/139/139 140/140/140
f 139/139/139 141/141/141 140/140/140
f 140/140/140 141/141/141 142/142/142
f 141/141/141 143/143/143 142/142/142
f 146/146/146 145/145/145 144/144/144
f 145/145/145 147/147/147 144/144/144
f 144/144/144 147/147/147 148/148/148
f 147/147/147 149/149/149 148/148/148
f 147/147/147 145/145/145 150/150/150
f 151/151/151 149/149/149 147/147/147
f 152/152/152 147/147/147 150/150/150
f 152/152/152 151/151/151 147/147/147
f 150/150/150 153/153/153 152/152/152
f 153/153/153 154/154/154 152/152/152
f 152/152/152 154/154/154 151/151/151
f 154/154/154 155/155/155 151/151/151
f 158/158/158 157/157/157 156/156/156
f 159/159/159 158/158/158 156/156/156
f 162/162/162 161/161/161 160/160/160
f 163/163/163 162/162/162 160/160/160
f 166/166/166 165/165/165 164/164/164
f 167/167/167 166/166/166 164/164/164
f 170/170/170 169/169/169 168/168/168
f 171/171/171 170/170/170 168/168/168
f 174/174/174 173/173/173 172/172/172
f 175/175/175 174/174/174 172/172/172
f 178/178/178 177/177/177 176/176/176
f 177/177/177 178/178/178 179/179/179
f 177/177/177 180/180/180 176/176/176
f 181/181/181 177/177/177 179/179/179
f 176/176/176 180/180/180 182/182/182
f 183/183/183 181/181/181 179/179/179
f 180/180/180 184/184/184 182/182/182
f 185/185/185 183/183/183 179/179/179
f 182/182/182 184/184/184 186/186/186
f 187/187/187 183/183/183 185/185/185
f 184/184/184 188/188/188 186/186/186
f 189/189/189 187/187/187 185/185/185
f 190/190/190 187/187/187 189/189/189
f 191/191/191 190/190/190 189/189/189
f 186/186/186 188/188/188 192/192/192
f 188/188/188 193/193/193 192/192/192
f 194/194/194 190/190/190 191/191/191
f 193/193/193 194/194/194 192/192/192
f 195/195/195 194/194/194 191/191/191
f 194/194/194 195/195/195 192/192/192
