g bbCloverfieldLargeSparse_LOD0
v -3.607722 0.4152382 0.1252398
v -3.215128 0.2666176 0.2675884
v -3.538472 0.2219188 -0.2675884
v -3.145878 0.07329818 -0.1252398
v -1.761747 0.3737646 0.1838358
v -2.227058 0.3850868 -0.1886482
v -2.133721 0.3236136 0.6469846
v -2.599032 0.334936 0.2745006
v -0.328077 0.393525 0.4675778
v 0.09340058 0.3101662 0.0681816
v -0.734283 0.2539636 0.068042
v -0.3128052 0.1706046 -0.331354
v -0.3812392 0.3010894 0.476971
v -0.2499136 0.366155 0.01706759
v -0.8320082 0.2036626 0.3344702
v -0.7006826 0.2687284 -0.1254332
v -1.711877 0.2856646 1.041753
v -1.456216 0.2465004 0.7526802
v -2.003563 0.2566502 0.7877128
v -1.747902 0.217486 0.49864
v -1.680776 0.2331222 0.6995596
v -2.182508 0.4003654 0.8906207
v -1.483896 0.2221456 1.226179
v -1.985629 0.3893888 1.41724
v -2.128772 0.3327426 1.22364
v -1.647213 0.468924 1.677831
v -1.667167 0.3461268 0.7302074
v -1.185608 0.4823084 1.184398
v -0.6908833 0.2506172 0.2933376
v -0.3873228 0.3445338 0.6345834
v -0.3403644 0.1085446 0.02062941
v -0.0368042 0.2024612 0.361875
v -2.358347 0.3091758 2.191549
v -2.231047 0.2100464 2.58194
v -1.955569 0.3389416 2.067768
v -1.828269 0.2398122 2.458159
v -1.422397 0.4277986 2.066296
v -0.894972 0.4378774 1.875532
v -1.601939 0.2626196 1.561172
v -1.074514 0.2726982 1.370408
v -1.313655 0.2628626 2.034688
v -1.604724 0.3354492 2.300674
v -1.070076 0.1493494 2.332215
v -1.361144 0.221936 2.598201
v -0.08087541 0.5988916 0.03573897
v -0.6024262 0.5602474 0.3670622
v 0.2246492 0.296749 0.4814388
v -0.2969014 0.2581048 0.8127618
v 0.1445736 0.2580616 0.4250104
v -0.04237198 0.3039632 0.0967042
v -0.1867948 0.2215816 0.6085992
v -0.3737404 0.267483 0.280293
v -0.1595352 0.27669 1.122996
v 0.06846219 0.3421936 0.8323764
v -0.4337212 0.1797158 0.8860332
v -0.2057236 0.2452194 0.5954138
v 0.053298 0.392693 2.777047
v -0.496275 0.3870094 2.58627
v -0.12086 0.1697188 3.285388
v -0.670433 0.1640352 3.09461
v 0.180622 0.3281884 0.6277812
v -0.2176628 0.266556 0.651105
v 0.2176628 0.236983 1.019295
v -0.180622 0.1753504 1.042619
v 0.2915642 0.360342 3.880469
v 0.6890284 0.2635054 3.660631
v 0.06131981 0.3279844 3.478444
v 0.458784 0.2311478 3.258606
v 0.8198394 0.293534 2.041092
v 0.4970076 0.372128 1.565149
v 0.3382992 0.2749812 2.364657
v 0.01546717 0.3535752 1.888713
v 0.4780942 0.2542438 2.524471
v 0.767117 0.288566 2.970122
v 0.9238247 0.271618 2.234059
v 1.212847 0.3059402 2.679709
v 0.7667246 0.3985628 2.243848
v 0.8868994 0.470464 2.833452
v 1.332907 0.2028504 2.152313
v 1.453082 0.2747516 2.741917
v 0.242013 0.4598828 1.239145
v 0.9054922 0.400915 1.054609
v 0.0485076 0.2898068 0.5977674
v 0.711987 0.2308388 0.413231
v 2.010193 0.5014817 2.662183
v 2.020023 0.3771214 2.122773
v 1.46719 0.3944532 2.676962
v 1.47702 0.270093 2.137552
v 0.385224 0.2831636 0.5788767
v 0.5149682 0.3514008 0.2150986
v 0.06797822 0.1051096 0.432329
v 0.1977226 0.1733468 0.06855121
v 1.199839 0.6648828 1.56465
v 1.784725 0.5601699 1.917789
v 1.473816 0.3456354 1.016213
v 2.058702 0.2409224 1.369353
v 1.844718 0.2335006 1.709137
v 2.209411 0.2748326 1.303489
v 1.436991 0.2649208 1.345776
v 1.801684 0.3062528 0.9401278
v 0.1288576 0.431627 0.4737692
v 0.590173 0.3001072 0.2661182
v -0.1038132 0.3403506 0.01468158
v 0.3575024 0.208831 -0.1929694
v 1.423523 0.298217 0.3566814
v 1.002766 0.1936494 0.2354894
v 1.292791 0.3260324 0.7865576
v 0.8720347 0.2214646 0.6653656
v 1.222292 0.2930818 0.6288832
v 1.391395 0.3012758 0.2707752
v 0.9094006 0.10368 0.4767982
v 1.078504 0.111874 0.1186902
v 0.7544093 0.4799448 0.131702
v 0.424803 0.3926654 -0.2922238
v 0.3851032 0.2587814 0.4643744
v 0.05549722 0.171502 0.0404486
v 2.096359 0.375419 -0.07381699
v 2.053901 0.4963402 0.4998838
v 2.664906 0.2434154 -0.003918195
v 2.622449 0.3643366 0.5697827
v 3.097668 0.4771944 0.3481906
v 3.735204 0.4516418 0.2150856
v 2.967995 0.1759874 -0.215086
v 3.605531 0.1504348 -0.348191
v 2.618877 0.3226412 -0.1944242
v 3.112063 0.3787496 0.06155143
v 2.874163 0.3429408 -0.6907316
v 3.367349 0.399049 -0.434756
v 0.4743614 0.5538748 0.28094
v 0.8704736 0.4577178 -0.1363638
v 0.05915761 0.3284522 -0.0612356
v 0.45527 0.2322952 -0.4785396
v 0.4800584 0.3911188 0.19259
v 0.9208795 0.398068 -0.143581
v 0.1747372 0.1672012 -0.2124068
v 0.6155584 0.1741504 -0.5485776
v 0.4200436 0.5496734 -0.5982932
v 0.4772776 0.3987884 0.05880339
v 1.009243 0.2403322 -0.7206456
v 1.066477 0.089447 -0.063549
v 0.3372024 0.241033 -0.01345141
v 0.8631744 0.3213572 -0.0988806
v 0.2529588 0.2267858 -0.5455198
v 0.7789308 0.30711 -0.630949
v 1.523466 0.392758 -1.570744
v 1.691774 0.2907094 -0.9957834
v 2.094423 0.2960126 -1.755052
v 2.262732 0.1939642 -1.180091
v 2.93075 0.662504 -2.106001
v 2.678796 0.5756552 -2.727218
v 2.398963 0.3370488 -1.844818
v 2.147009 0.2502 -2.466036
v 2.024261 0.2454336 -2.294839
v 2.527965 0.3974482 -2.275801
v 2.058522 0.1974338 -2.818012
v 2.562225 0.3494484 -2.798974
v 2.226385 0.3084888 -2.699327
v 1.923761 0.3430046 -2.94866
v 1.995119 0.116435 -2.445218
v 1.692495 0.1509508 -2.694551
v 0.05511538 0.314545 -0.236804
v 0.4377398 0.2100474 -0.2207956
v 0.05185999 0.2428164 -0.6272166
v 0.4344846 0.1383188 -0.611208
v 0.3406276 0.2786922 -0.454381
v -0.01273719 0.174212 -0.519038
v 0.2821592 0.2485282 -0.0860946
v -0.07120558 0.144048 -0.1507516
v -0.0979764 0.2985488 -0.5309368
v 0.005012596 0.187968 -0.1770814
v 0.2642028 0.250131 -0.6514792
v 0.3671918 0.1395502 -0.2976236
v 0.1910844 0.3461588 -0.7842522
v -0.1607084 0.291905 -0.5967316
v 0.3852526 0.2090118 -0.4596678
v 0.0334598 0.1547582 -0.2721472
v 0.3383136 0.3857016 -1.93087
v 0.5389148 0.3171644 -2.339132
v -0.0707952 0.2835232 -2.114734
v 0.129806 0.214986 -2.522996
v 0.1329324 0.3280218 -0.4410758
v 0.2719364 0.1967388 -0.8306932
v -0.2719372 0.3558748 -0.5949068
v -0.1329332 0.2245916 -0.9845241
v -0.0636986 0.3234428 -3.334136
v -0.2261284 0.3444618 -3.77744
v -0.5046536 0.262416 -3.175461
v -0.6670832 0.283435 -3.618765
v 0.1710854 0.281681 -1.015625
v -0.3507996 0.3648742 -1.186137
v -0.005478406 0.251347 -0.4900167
v -0.5273632 0.33454 -0.6605282
v -0.4001134 0.2810064 -0.7988332
v 0.02730723 0.436455 -1.241549
v -0.8371803 0.195058 -1.250979
v -0.4097596 0.3505066 -1.693695
v 0.04277423 0.4728408 -0.6920848
v -0.3187944 0.4126212 -1.118217
v -0.3313342 0.2417006 -0.3419936
v -0.6929028 0.181481 -0.7681258
v -1.539767 0.2789076 -2.487286
v -1.290807 0.3247634 -2.946257
v -1.992395 0.2027962 -2.740411
v -1.743436 0.2486518 -3.199381
v -0.412117 0.2854102 -0.5775275
v -0.3799544 0.3394038 -1.002592
v -0.805021 0.11907 -0.6283861
v -0.7728584 0.1730636 -1.05345
v -0.2718084 0.5184442 0.1634058
v 0.2319344 0.371198 0.0883682
v -0.410191 0.2742184 -0.2863418
v 0.09355181 0.1269724 -0.3613794
v -0.645895 0.3746756 -0.1649976
v -0.2062136 0.3269552 -0.4368688
v -0.9174218 0.2079418 -0.574856
v -0.4777404 0.1602214 -0.846727
v -0.7707064 0.5523754 -0.1170676
v -0.168822 0.6606522 0.2156926
v -0.4253202 0.2621778 -0.6473618
v 0.1765642 0.3704546 -0.3146016
v -2.331576 0.3148124 -1.244357
v -2.351999 0.2281604 -1.798797
v -2.891959 0.3473566 -1.228801
v -2.912381 0.2607046 -1.783242
v -2.418929 0.4196584 -0.7563905
v -2.199909 0.4431262 -1.322721
v -2.950295 0.2168122 -0.9702935
v -2.731276 0.24028 -1.536624
v -1.501652 0.3809812 -0.149233
v -0.96131 0.3340654 -0.118569
v -1.483286 0.248398 -0.675727
v -0.9429434 0.2014822 -0.6450628
v -2.080022 0.339738 -0.09402619
v -1.538737 0.4099152 -0.1756402
v -2.13049 0.135599 -0.6042768
v -1.589205 0.205776 -0.6858906
v -2.702711 0.4235422 -0.2555698
v -2.23263 0.5379306 0.1594998
v -2.292842 0.1164992 -0.6351426
v -1.822762 0.2308876 -0.220073
vt 0.0001 0.0001000166
vt 0.9999 0.0001000166
vt 0.0001 0.9999
vt 0.9999 0.9999
vt 0.0001 0.0001000166
vt 0.9999 0.0001000166
vt 0.0001 0.9999
vt 0.9999 0.9999
vt 0.0001 0.0001000166
vt 0.9999 0.0001000166
vt 0.0001 0.9999
vt 0.9999 0.9999
vt 0.0001 0.0001000166
vt 0.9999 0.0001000166
vt 0.0001 0.9999
vt 0.9999 0.9999
vt 0.0001 0.0001000166
vt 0.9999 0.0001000166
vt 0.0001 0.9999
vt 0.9999 0.9999
vt 0.0001 0.0001000166
vt 0.9999 0.0001000166
vt 0.0001 0.9999
vt 0.9999 0.9999
vt 0.0001 0.0001000166
vt 0.9999 0.0001000166
vt 0.0001 0.9999
vt 0.9999 0.9999
vt 0.0001 0.0001000166
vt 0.9999 0.0001000166
vt 0.0001 0.9999
vt 0.9999 0.9999
vt 0.0001 0.0001000166
vt 0.9999 0.0001000166
vt 0.0001 0.9999
vt 0.9999 0.9999
vt 0.0001 0.0001000166
vt 0.9999 0.0001000166
vt 0.0001 0.9999
vt 0.9999 0.9999
vt 0.0001 0.0001000166
vt 0.9999 0.0001000166
vt 0.0001 0.9999
vt 0.9999 0.9999
vt 0.0001 0.0001000166
vt 0.9999 0.0001000166
vt 0.0001 0.9999
vt 0.9999 0.9999
vt 0.0001 0.0001000166
vt 0.9999 0.0001000166
vt 0.0001 0.9999
vt 0.9999 0.9999
vt 0.0001 0.0001000166
vt 0.9999 0.0001000166
vt 0.0001 0.9999
vt 0.9999 0.9999
vt 0.0001 0.0001000166
vt 0.9999 0.0001000166
vt 0.0001 0.9999
vt 0.9999 0.9999
vt 0.0001 0.0001000166
vt 0.9999 0.0001000166
vt 0.0001 0.9999
vt 0.9999 0.9999
vt 0.0001 0.0001000166
vt 0.9999 0.0001000166
vt 0.0001 0.9999
vt 0.9999 0.9999
vt 0.0001 0.0001000166
vt 0.9999 0.0001000166
vt 0.0001 0.9999
vt 0.9999 0.9999
vt 0.0001 0.0001000166
vt 0.9999 0.0001000166
vt 0.0001 0.9999
vt 0.9999 0.9999
vt 0.0001 0.0001000166
vt 0.9999 0.0001000166
vt 0.0001 0.9999
vt 0.9999 0.9999
vt 0.0001 0.0001000166
vt 0.9999 0.0001000166
vt 0.0001 0.9999
vt 0.9999 0.9999
vt 0.0001 0.0001000166
vt 0.9999 0.0001000166
vt 0.0001 0.9999
vt 0.9999 0.9999
vt 0.0001 0.0001000166
vt 0.9999 0.0001000166
vt 0.0001 0.9999
vt 0.9999 0.9999
vt 0.0001 0.0001000166
vt 0.9999 0.0001000166
vt 0.0001 0.9999
vt 0.9999 0.9999
vt 0.0001 0.0001000166
vt 0.9999 0.0001000166
vt 0.0001 0.9999
vt 0.9999 0.9999
vt 0.0001 0.0001000166
vt 0.9999 0.0001000166
vt 0.0001 0.9999
vt 0.9999 0.9999
vt 0.0001 0.0001000166
vt 0.9999 0.0001000166
vt 0.0001 0.9999
vt 0.9999 0.9999
vt 0.0001 0.0001000166
vt 0.9999 0.0001000166
vt 0.0001 0.9999
vt 0.9999 0.9999
vt 0.0001 0.0001000166
vt 0.9999 0.0001000166
vt 0.0001 0.9999
vt 0.9999 0.9999
vt 0.0001 0.0001000166
vt 0.9999 0.0001000166
vt 0.0001 0.9999
vt 0.9999 0.9999
vt 0.0001 0.0001000166
vt 0.9999 0.0001000166
vt 0.0001 0.9999
vt 0.9999 0.9999
vt 0.0001 0.0001000166
vt 0.9999 0.0001000166
vt 0.0001 0.9999
vt 0.9999 0.9999
vt 0.0001 0.0001000166
vt 0.9999 0.0001000166
vt 0.0001 0.9999
vt 0.9999 0.9999
vt 0.0001 0.0001000166
vt 0.9999 0.0001000166
vt 0.0001 0.9999
vt 0.9999 0.9999
vt 0.0001 0.0001000166
vt 0.9999 0.0001000166
vt 0.0001 0.9999
vt 0.9999 0.9999
vt 0.0001 0.0001000166
vt 0.9999 0.0001000166
vt 0.0001 0.9999
vt 0.9999 0.9999
vt 0.0001 0.0001000166
vt 0.9999 0.0001000166
vt 0.0001 0.9999
vt 0.9999 0.9999
vt 0.0001 0.0001000166
vt 0.9999 0.0001000166
vt 0.0001 0.9999
vt 0.9999 0.9999
vt 0.0001 0.0001000166
vt 0.9999 0.0001000166
vt 0.0001 0.9999
vt 0.9999 0.9999
vt 0.0001 0.0001000166
vt 0.9999 0.0001000166
vt 0.0001 0.9999
vt 0.9999 0.9999
vt 0.0001 0.0001000166
vt 0.9999 0.0001000166
vt 0.0001 0.9999
vt 0.9999 0.9999
vt 0.0001 0.0001000166
vt 0.9999 0.0001000166
vt 0.0001 0.9999
vt 0.9999 0.9999
vt 0.0001 0.0001000166
vt 0.9999 0.0001000166
vt 0.0001 0.9999
vt 0.9999 0.9999
vt 0.0001 0.0001000166
vt 0.9999 0.0001000166
vt 0.0001 0.9999
vt 0.9999 0.9999
vt 0.0001 0.0001000166
vt 0.9999 0.0001000166
vt 0.0001 0.9999
vt 0.9999 0.9999
vt 0.0001 0.0001000166
vt 0.9999 0.0001000166
vt 0.0001 0.9999
vt 0.9999 0.9999
vt 0.0001 0.0001000166
vt 0.9999 0.0001000166
vt 0.0001 0.9999
vt 0.9999 0.9999
vt 0.0001 0.0001000166
vt 0.9999 0.0001000166
vt 0.0001 0.9999
vt 0.9999 0.9999
vt 0.0001 0.0001000166
vt 0.9999 0.0001000166
vt 0.0001 0.9999
vt 0.9999 0.9999
vt 0.0001 0.0001000166
vt 0.9999 0.0001000166
vt 0.0001 0.9999
vt 0.9999 0.9999
vt 0.0001 0.0001000166
vt 0.9999 0.0001000166
vt 0.0001 0.9999
vt 0.9999 0.9999
vt 0.0001 0.0001000166
vt 0.9999 0.0001000166
vt 0.0001 0.9999
vt 0.9999 0.9999
vt 0.0001 0.0001000166
vt 0.9999 0.0001000166
vt 0.0001 0.9999
vt 0.9999 0.9999
vt 0.0001 0.0001000166
vt 0.9999 0.0001000166
vt 0.0001 0.9999
vt 0.9999 0.9999
vt 0.0001 0.0001000166
vt 0.9999 0.0001000166
vt 0.0001 0.9999
vt 0.9999 0.9999
vt 0.0001 0.0001000166
vt 0.9999 0.0001000166
vt 0.0001 0.9999
vt 0.9999 0.9999
vt 0.0001 0.0001000166
vt 0.9999 0.0001000166
vt 0.0001 0.9999
vt 0.9999 0.9999
vt 0.0001 0.0001000166
vt 0.9999 0.0001000166
vt 0.0001 0.9999
vt 0.9999 0.9999
vt 0.0001 0.0001000166
vt 0.9999 0.0001000166
vt 0.0001 0.9999
vt 0.9999 0.9999
vt 0.0001 0.0001000166
vt 0.9999 0.0001000166
vt 0.0001 0.9999
vt 0.9999 0.9999
vn -0.024288 0.9973471 -0.068626
vn 0.645205 0.743904 0.174122
vn 0.093804 0.667679 -0.7385161
vn 0.763297 0.414236 -0.495769
vn 0.498876 0.8666369 0.008032
vn -0.091129 0.8809929 -0.46427
vn 0.02722 0.803046 0.595295
vn -0.562784 0.817403 0.122993
vn -0.06494301 0.955694 0.287108
vn 0.478168 0.848279 -0.227549
vn -0.588376 0.775857 -0.227729
vn -0.045264 0.6684411 -0.742386
vn 0.05395601 0.845235 0.531664
vn 0.259612 0.9471281 -0.188547
vn -0.651951 0.692664 0.308507
vn -0.446294 0.794558 -0.411704
vn 0.043877 0.904901 0.423355
vn 0.542091 0.82858 -0.139972
vn -0.524543 0.848359 -0.07170301
vn -0.026328 0.7720379 -0.63503
vn 0.445906 0.701726 -0.555652
vn -0.22854 0.92654 -0.298821
vn 0.710558 0.6869709 0.152248
vn 0.036112 0.911784 0.409078
vn -0.6630521 0.744019 -0.082451
vn -0.124434 0.896336 0.425556
vn -0.146753 0.758989 -0.634349
vn 0.391865 0.911307 -0.126343
vn -0.441268 0.825809 -0.351172
vn 0.050839 0.9780591 0.202028
vn 0.126964 0.5954921 -0.793265
vn 0.619072 0.747743 -0.240064
vn -0.471195 0.881467 -0.031481
vn -0.243399 0.70408 0.6671051
vn 0.249555 0.9347321 -0.25298
vn 0.477352 0.757344 0.445606
vn -0.332697 0.912054 0.239728
vn 0.378019 0.925636 -0.01733
vn -0.5746329 0.689472 -0.440937
vn 0.136083 0.703054 -0.6979951
vn 0.317078 0.8345931 -0.450462
vn -0.231702 0.971448 0.051028
vn 0.776323 0.620576 0.110495
vn 0.227542 0.75743 0.611984
vn 0.314643 0.9438381 -0.100842
vn -0.322151 0.896655 0.303691
vn 0.687678 0.5749329 0.443341
vn 0.050884 0.52775 0.847874
vn 0.494018 0.825722 0.272266
vn 0.122712 0.916891 -0.379807
vn -0.164137 0.753266 0.636906
vn -0.535444 0.844435 -0.015168
vn -0.215932 0.8347011 0.506605
vn 0.243472 0.966687 -0.07897901
vn -0.768403 0.6393021 0.029137
vn -0.308999 0.7712889 -0.556446
vn 0.356734 0.929133 0.097221
vn -0.357326 0.921749 -0.150657
vn 0.130451 0.6394231 0.757708
vn -0.58361 0.632038 0.509831
vn 0.224097 0.956232 -0.188154
vn -0.521662 0.8408291 -0.144482
vn 0.293453 0.785456 0.544926
vn -0.452306 0.670054 0.588598
vn -0.011408 0.929631 0.368315
vn 0.6355141 0.772018 0.010501
vn -0.386159 0.876965 -0.286031
vn 0.260763 0.719352 -0.6438441
vn 0.565395 0.7978541 0.209181
vn 0.144982 0.900205 -0.410623
vn -0.061698 0.773694 0.6305481
vn -0.482111 0.876044 0.010744
vn -0.574553 0.806251 -0.140886
vn -0.164104 0.854993 0.491994
vn 0.05844 0.830924 -0.553308
vn 0.468888 0.879666 0.07957201
vn -0.177645 0.870787 -0.458446
vn -0.027746 0.960472 0.276991
vn 0.528578 0.626667 -0.572621
vn 0.678477 0.716352 0.162816
vn -0.245603 0.941247 0.231804
vn 0.479995 0.876758 0.02999
vn -0.457225 0.755248 -0.469624
vn 0.268373 0.6907591 -0.671438
vn 0.199721 0.9651601 0.169047
vn 0.213142 0.795371 -0.5674111
vn -0.541643 0.819034 0.189226
vn -0.528222 0.649245 -0.547233
vn -0.23014 0.844383 0.48379
vn 0.019917 0.975897 -0.217321
vn -0.8415691 0.501219 0.201348
vn -0.5915121 0.632733 -0.499762
vn -0.168596 0.9704241 -0.172776
vn 0.471031 0.855911 0.213415
vn 0.131023 0.621298 -0.772542
vn 0.77065 0.506785 -0.386351
vn 0.023313 0.79109 0.611256
vn 0.527238 0.848202 0.05074
vn -0.540076 0.8345061 0.109171
vn -0.036151 0.891617 -0.451344
vn -0.037182 0.965647 0.257182
vn 0.629928 0.775456 -0.043103
vn -0.373648 0.8336521 -0.406707
vn 0.293462 0.6434611 -0.706992
vn 0.289599 0.88483 -0.364978
vn -0.4169 0.7092479 -0.568473
vn 0.070086 0.9315351 0.3568351
vn -0.636413 0.755953 0.153339
vn -0.234865 0.914985 0.328088
vn 0.08783301 0.9306211 -0.355288
vn -0.831955 0.5535501 0.037864
vn -0.509256 0.569187 -0.6455111
vn 0.134903 0.9744621 0.179514
vn -0.323063 0.853193 -0.409503
vn -0.378223 0.66717 0.641741
vn -0.836189 0.545901 0.05272401
vn -0.132351 0.81215 -0.568239
vn -0.186946 0.9676411 0.169475
vn 0.598737 0.642409 -0.478357
vn 0.5441421 0.7978991 0.259357
vn -0.34562 0.9382521 0.01518
vn 0.393753 0.908617 -0.139187
vn -0.496008 0.588931 -0.638073
vn 0.243366 0.559296 -0.79244
vn -0.596059 0.788623 0.150957
vn 0.07145901 0.8645641 0.497415
vn -0.250534 0.816098 -0.520785
vn 0.416984 0.892039 -0.174327
vn -0.139548 0.975315 0.171134
vn 0.373731 0.850715 -0.369605
vn -0.6775661 0.683214 -0.272255
vn -0.164287 0.558614 -0.8129939
vn -0.307081 0.921006 0.239684
vn 0.293934 0.9304811 -0.218651
vn -0.723356 0.615717 -0.312488
vn -0.122341 0.625192 -0.770823
vn 0.048242 0.984731 -0.167263
vn 0.112182 0.816168 0.56682
vn 0.7064739 0.639147 -0.303951
vn 0.770413 0.470584 0.430133
vn -0.437734 0.789085 0.430968
vn 0.30005 0.901756 0.311136
vn -0.555903 0.7691 -0.315367
vn 0.181881 0.881772 -0.435199
vn -0.289425 0.9458651 -0.146879
vn -0.08007801 0.818934 0.5682729
vn 0.420748 0.82553 -0.376126
vn 0.6300951 0.6986001 0.339026
vn 0.02229 0.963287 0.267548
vn -0.259456 0.866169 -0.427123
vn -0.572376 0.599349 0.559613
vn -0.8541221 0.5022309 -0.135058
vn -0.625894 0.7308261 0.272304
vn 0.09729201 0.949079 0.299638
vn -0.576706 0.661911 -0.478836
vn 0.14648 0.880164 -0.451503
vn 0.299266 0.8852739 0.355991
vn -0.28188 0.951557 -0.122816
vn -0.144846 0.516463 0.84397
vn -0.725992 0.582745 0.365163
vn -0.136225 0.9687151 0.207446
vn 0.592373 0.769729 0.23793
vn -0.142424 0.8321291 -0.535982
vn 0.586175 0.6331431 -0.505499
vn 0.171921 0.944698 -0.279263
vn -0.542047 0.7335981 -0.409902
vn 0.05378601 0.883752 0.464854
vn -0.6601821 0.672652 0.334215
vn -0.283018 0.958676 -0.029008
vn -0.08069201 0.741436 0.666155
vn 0.428497 0.863557 -0.265818
vn 0.6308231 0.646317 0.429345
vn 0.190409 0.966134 -0.174153
vn -0.470546 0.864201 0.178164
vn 0.555216 0.70846 0.435683
vn -0.105739 0.606527 0.788
vn 0.055031 0.954638 0.292641
vn 0.3846571 0.842018 -0.378212
vn -0.617213 0.7867389 -0.009483
vn -0.287587 0.6741201 -0.680336
vn 0.370837 0.8938171 0.252134
vn 0.6129379 0.665163 -0.426456
vn -0.334318 0.942328 -0.015791
vn -0.09221701 0.7136739 -0.6943811
vn 0.392794 0.869245 0.300211
vn 0.132993 0.902864 -0.40884
vn -0.3125 0.7716339 0.554008
vn -0.572302 0.805253 -0.155043
vn 0.58105 0.798377 -0.158035
vn -0.129359 0.911622 -0.390142
vn 0.340705 0.757085 0.557443
vn -0.369705 0.87033 0.325336
vn -0.221542 0.770011 0.598332
vn 0.287491 0.9551421 0.07108301
vn -0.742064 0.6676521 0.059853
vn -0.23303 0.852782 -0.467396
vn 0.17479 0.960974 0.214425
vn -0.311445 0.879991 -0.358634
vn -0.328309 0.650138 0.685226
vn -0.814544 0.569155 0.112166
vn 0.003688 0.8547521 0.519024
vn 0.36272 0.920882 -0.14287
vn -0.6490601 0.744989 0.153987
vn -0.290029 0.811119 -0.507907
vn -0.018928 0.870818 0.49124
vn 0.037652 0.965803 -0.256528
vn -0.710121 0.578195 0.401771
vn -0.6535411 0.67318 -0.345997
vn -0.116437 0.9915561 -0.057093
vn 0.601795 0.7816129 -0.164081
vn -0.313742 0.6433411 -0.6983401
vn 0.404491 0.433398 -0.805328
vn -0.203238 0.952741 0.225786
vn 0.436957 0.883258 -0.17007
vn -0.5985931 0.709969 -0.370986
vn 0.041602 0.6404861 -0.766842
vn -0.445977 0.855678 -0.262525
vn 0.207502 0.973237 0.098759
vn -0.07098401 0.540605 -0.838277
vn 0.582494 0.6581631 -0.476992
vn 0.435663 0.870025 0.230768
vn 0.408172 0.753382 -0.515569
vn -0.318673 0.913833 0.251707
vn -0.346164 0.7971901 -0.49463
vn -0.08016001 0.9075881 0.412139
vn 0.192289 0.936781 -0.292347
vn -0.741151 0.655258 0.146055
vn -0.468702 0.684451 -0.558431
vn -0.306326 0.941237 0.14226
vn 0.445537 0.875956 0.184928
vn -0.280769 0.756753 -0.590333
vn 0.471094 0.6914721 -0.5476661
vn -0.481723 0.869576 0.108536
vn 0.259657 0.965695 -0.003248
vn -0.550848 0.5899729 -0.590338
vn 0.190533 0.686092 -0.702121
vn -0.34696 0.8391961 -0.41877
vn 0.210468 0.97484 0.073424
vn 0.139068 0.475101 -0.868873
vn 0.6964951 0.610744 -0.376678
g bbCloverfieldLargeSparse_LOD0_0
f 2/2/2 3/3/3 1/1/1
f 4/4/4 3/3/3 2/2/2
f 6/6/6 7/7/7 5/5/5
f 8/8/8 7/7/7 6/6/6
f 10/10/10 11/11/11 9/9/9
f 12/12/12 11/11/11 10/10/10
f 14/14/14 15/15/15 13/13/13
f 16/16/16 15/15/15 14/14/14
f 18/18/18 19/19/19 17/17/17
f 20/20/20 19/19/19 18/18/18
f 22/22/22 23/23/23 21/21/21
f 24/24/24 23/23/23 22/22/22
f 26/26/26 27/27/27 25/25/25
f 28/28/28 27/27/27 26/26/26
f 30/30/30 31/31/31 29/29/29
f 32/32/32 31/31/31 30/30/30
f 34/34/34 35/35/35 33/33/33
f 36/36/36 35/35/35 34/34/34
f 38/38/38 39/39/39 37/37/37
f 40/40/40 39/39/39 38/38/38
f 42/42/42 43/43/43 41/41/41
f 44/44/44 43/43/43 42/42/42
f 46/46/46 47/47/47 45/45/45
f 48/48/48 47/47/47 46/46/46
f 50/50/50 51/51/51 49/49/49
f 52/52/52 51/51/51 50/50/50
f 54/54/54 55/55/55 53/53/53
f 56/56/56 55/55/55 54/54/54
f 58/58/58 59/59/59 57/57/57
f 60/60/60 59/59/59 58/58/58
f 62/62/62 63/63/63 61/61/61
f 64/64/64 63/63/63 62/62/62
f 66/66/66 67/67/67 65/65/65
f 68/68/68 67/67/67 66/66/66
f 70/70/70 71/71/71 69/69/69
f 72/72/72 71/71/71 70/70/70
f 74/74/74 75/75/75 73/73/73
f 76/76/76 75/75/75 74/74/74
f 78/78/78 79/79/79 77/77/77
f 80/80/80 79/79/79 78/78/78
f 82/82/82 83/83/83 81/81/81
f 84/84/84 83/83/83 82/82/82
f 86/86/86 87/87/87 85/85/85
f 88/88/88 87/87/87 86/86/86
f 90/90/90 91/91/91 89/89/89
f 92/92/92 91/91/91 90/90/90
f 94/94/94 95/95/95 93/93/93
f 96/96/96 95/95/95 94/94/94
f 98/98/98 99/99/99 97/97/97
f 100/100/100 99/99/99 98/98/98
f 102/102/102 103/103/103 101/101/101
f 104/104/104 103/103/103 102/102/102
f 106/106/106 107/107/107 105/105/105
f 108/108/108 107/107/107 106/106/106
f 110/110/110 111/111/111 109/109/109
f 112/112/112 111/111/111 110/110/110
f 114/114/114 115/115/115 113/113/113
f 116/116/116 115/115/115 114/114/114
f 118/118/118 119/119/119 117/117/117
f 120/120/120 119/119/119 118/118/118
f 122/122/122 123/123/123 121/121/121
f 124/124/124 123/123/123 122/122/122
f 126/126/126 127/127/127 125/125/125
f 128/128/128 127/127/127 126/126/126
f 130/130/130 131/131/131 129/129/129
f 132/132/132 131/131/131 130/130/130
f 134/134/134 135/135/135 133/133/133
f 136/136/136 135/135/135 134/134/134
f 138/138/138 139/139/139 137/137/137
f 140/140/140 139/139/139 138/138/138
f 142/142/142 143/143/143 141/141/141
f 144/144/144 143/143/143 142/142/142
f 146/146/146 147/147/147 145/145/145
f 148/148/148 147/147/147 146/146/146
f 150/150/150 151/151/151 149/149/149
f 152/152/152 151/151/151 150/150/150
f 154/154/154 155/155/155 153/153/153
f 156/156/156 155/155/155 154/154/154
f 158/158/158 159/159/159 157/157/157
f 160/160/160 159/159/159 158/158/158
f 162/162/162 163/163/163 161/161/161
f 164/164/164 163/163/163 162/162/162
f 166/166/166 167/167/167 165/165/165
f 168/168/168 167/167/167 166/166/166
f 170/170/170 171/171/171 169/169/169
f 172/172/172 171/171/171 170/170/170
f 174/174/174 175/175/175 173/173/173
f 176/176/176 175/175/175 174/174/174
f 178/178/178 179/179/179 177/177/177
f 180/180/180 179/179/179 178/178/178
f 182/182/182 183/183/183 181/181/181
f 184/184/184 183/183/183 182/182/182
f 186/186/186 187/187/187 185/185/185
f 188/188/188 187/187/187 186/186/186
f 190/190/190 191/191/191 189/189/189
f 192/192/192 191/191/191 190/190/190
f 194/194/194 195/195/195 193/193/193
f 196/196/196 195/195/195 194/194/194
f 198/198/198 199/199/199 197/197/197
f 200/200/200 199/199/199 198/198/198
f 202/202/202 203/203/203 201/201/201
f 204/204/204 203/203/203 202/202/202
f 206/206/206 207/207/207 205/205/205
f 208/208/208 207/207/207 206/206/206
f 210/210/210 211/211/211 209/209/209
f 212/212/212 211/211/211 210/210/210
f 214/214/214 215/215/215 213/213/213
f 216/216/216 215/215/215 214/214/214
f 218/218/218 219/219/219 217/217/217
f 220/220/220 219/219/219 218/218/218
f 222/222/222 223/223/223 221/221/221
f 224/224/224 223/223/223 222/222/222
f 226/226/226 227/227/227 225/225/225
f 228/228/228 227/227/227 226/226/226
f 230/230/230 231/231/231 229/229/229
f 232/232/232 231/231/231 230/230/230
f 234/234/234 235/235/235 233/233/233
f 236/236/236 235/235/235 234/234/234
f 238/238/238 239/239/239 237/237/237
f 240/240/240 239/239/239 238/238/238
